<svg width="111" height="31" viewBox="0 0 111 31" fill="none" xmlns="http://www.w3.org/2000/svg">
<g clip-path="url(#clip0_310_11887)">
<path fill-rule="evenodd" clip-rule="evenodd" d="M17.5184 7.05847C16.5264 7.05847 15.5441 7.26082 14.6276 7.65393C13.7111 8.04704 12.8783 8.62321 12.1768 9.34959C11.4753 10.0759 10.9189 10.9383 10.5392 11.8873C10.2016 12.7314 10.0097 13.6293 9.97137 14.5403C9.9626 14.7488 9.85053 14.9397 9.67064 15.0328L7.23611 16.2933C7.05621 16.3864 6.94091 16.5773 6.94969 16.7858C6.98801 17.6967 7.17992 18.5947 7.51755 19.4387C7.8972 20.3878 8.45364 21.2501 9.15512 21.9765C9.85658 22.7028 10.6894 23.279 11.6059 23.6721C12.5224 24.0652 13.5047 24.2676 14.4967 24.2676C15.4888 24.2676 16.4711 24.0652 17.3876 23.6721C18.3042 23.279 19.1369 22.7028 19.8384 21.9765C20.5399 21.2501 21.0963 20.3878 21.4759 19.4387C21.8136 18.5947 22.0055 17.6967 22.0438 16.7858C22.0526 16.5773 22.1646 16.3864 22.3445 16.2933L24.7791 15.0328C24.959 14.9397 25.0743 14.7488 25.0655 14.5403C25.0272 13.6293 24.8353 12.7314 24.4976 11.8873C24.118 10.9383 23.5615 10.0759 22.8601 9.34959C22.1586 8.62321 21.3258 8.04704 20.4093 7.65393C19.4928 7.26082 18.5105 7.05847 17.5184 7.05847ZM21.008 13.3841C21.1558 13.7535 21.2478 14.1436 21.2812 14.5406C21.2987 14.7485 21.1819 14.9397 21.002 15.0328L18.5674 16.2933C18.3875 16.3864 18.2771 16.5775 18.2595 16.7854C18.2261 17.1825 18.1341 17.5726 17.9863 17.942C17.7965 18.4165 17.5183 18.8477 17.1676 19.2109C16.8168 19.574 16.4004 19.8621 15.9422 20.0587C15.4839 20.2553 14.9928 20.3564 14.4967 20.3564C14.0007 20.3564 13.5096 20.2553 13.0513 20.0587C12.5931 19.8621 12.1767 19.574 11.8259 19.2109C11.4752 18.8477 11.197 18.4165 11.0071 17.942C10.8594 17.5726 10.7674 17.1825 10.734 16.7854C10.7164 16.5775 10.8333 16.3864 11.0132 16.2933L13.4477 15.0328C13.6276 14.9397 13.7381 14.7485 13.7556 14.5406C13.7891 14.1436 13.8811 13.7535 14.0288 13.3841C14.2186 12.9095 14.4969 12.4784 14.8476 12.1152C15.1984 11.752 15.6147 11.4639 16.073 11.2674C16.5313 11.0708 17.0224 10.9696 17.5184 10.9696C18.0144 10.9696 18.5056 11.0708 18.9639 11.2674C19.4221 11.4639 19.8385 11.752 20.1893 12.1152C20.54 12.4784 20.8182 12.9095 21.008 13.3841Z" fill="#F26CF9"/>
<path fill-rule="evenodd" clip-rule="evenodd" d="M17.5178 0.800659C15.7321 0.800659 13.9639 1.16485 12.3142 1.87245C10.6645 2.58004 9.1655 3.61719 7.90284 4.92464C6.64019 6.23212 5.63861 7.7843 4.95526 9.49257C4.31389 11.0959 3.96468 12.8073 3.92418 14.5402C3.9193 14.7489 3.80652 14.9397 3.62662 15.0328L1.19208 16.2933C1.0122 16.3864 0.897618 16.5772 0.902493 16.7859C0.942988 18.5188 1.29221 20.2302 1.93357 21.8335C2.61691 23.5418 3.61851 25.094 4.88115 26.4014C6.14382 27.7089 7.64278 28.7462 9.29255 29.4535C10.9423 30.1611 12.7104 30.5255 14.4961 30.5255C16.2818 30.5255 18.05 30.1611 19.6997 29.4535C21.3494 28.7462 22.8484 27.7089 24.1111 26.4014C25.3737 25.094 26.3753 23.5418 27.0586 21.8335C27.7001 20.2302 28.0492 18.5188 28.0897 16.7859C28.0945 16.5772 28.2074 16.3864 28.3871 16.2933L30.8217 15.0328C31.0017 14.9397 31.1162 14.7489 31.1114 14.5402C31.0709 12.8073 30.7218 11.0959 30.0803 9.49257C29.397 7.7843 28.3954 6.23212 27.1327 4.92464C25.8701 3.61719 24.3711 2.58004 22.7214 1.87245C21.0716 1.16485 19.3034 0.800659 17.5178 0.800659ZM24.3111 16.7858C24.3178 16.5772 24.4303 16.3864 24.6102 16.2933L27.0447 15.0328C27.2246 14.9397 27.3396 14.7488 27.3327 14.5402C27.2932 13.321 27.0423 12.1181 26.5907 10.9893C26.0972 9.75555 25.3738 8.63451 24.4619 7.69025C23.55 6.74597 22.4674 5.99693 21.2759 5.48589C20.0844 4.97484 18.8074 4.7118 17.5178 4.7118C16.2281 4.7118 14.9511 4.97484 13.7597 5.48589C12.5682 5.99693 11.4856 6.74597 10.5737 7.69025C9.66175 8.63451 8.93837 9.75555 8.44486 10.9893C7.99333 12.1181 7.74226 13.321 7.70282 14.5402C7.69606 14.7488 7.58362 14.9397 7.40373 15.0328L4.9692 16.2933C4.78931 16.3864 4.67438 16.5772 4.68113 16.7858C4.72058 18.0051 4.97164 19.208 5.42317 20.3368C5.91669 21.5705 6.64006 22.6916 7.55198 23.6358C8.46389 24.5801 9.5465 25.3292 10.738 25.8402C11.9294 26.3512 13.2065 26.6143 14.4961 26.6143C15.7858 26.6143 17.0628 26.3512 18.2542 25.8402C19.4457 25.3292 20.5283 24.5801 21.4402 23.6358C22.3521 22.6916 23.0755 21.5705 23.5691 20.3368C24.0206 19.208 24.2716 18.0051 24.3111 16.7858Z" fill="#F26CF9"/>
<path d="M71.3684 5.43236C70.9658 5.43236 70.6255 5.28786 70.3472 4.99887C70.0688 4.70988 69.9297 4.35896 69.9297 3.94612C69.9297 3.52295 70.0688 3.16947 70.3472 2.88563C70.6255 2.59664 70.9658 2.45215 71.3684 2.45215C71.7711 2.45215 72.109 2.59664 72.3823 2.88563C72.6606 3.16947 72.7998 3.52295 72.7998 3.94612C72.7998 4.35896 72.6606 4.70988 72.3823 4.99887C72.109 5.28786 71.7711 5.43236 71.3684 5.43236Z" fill="#1C2346"/>
<path d="M70.1816 14.7137V6.38452H72.5375V14.7137H70.1816Z" fill="#1C2346"/>
<path fill-rule="evenodd" clip-rule="evenodd" d="M73.8672 17.1643V6.38444H76.1035V7.21271H76.1327C76.2737 7.06858 76.4256 6.93699 76.588 6.81792C77.115 6.43604 77.7212 6.24512 78.4071 6.24512C79.0086 6.24512 79.5824 6.40767 80.1292 6.73277C80.6808 7.0579 81.128 7.5404 81.471 8.18031C81.814 8.82022 81.9804 9.61753 81.9706 10.5722C81.9754 11.2947 81.8786 11.9243 81.6798 12.461C81.481 12.9925 81.2125 13.4338 80.8746 13.7847C80.5366 14.1356 80.1589 14.3988 79.7415 14.5742C79.324 14.7497 78.9015 14.8374 78.4742 14.8374C77.7983 14.8374 77.1918 14.6413 76.6551 14.2491C76.5202 14.1491 76.3922 14.0407 76.271 13.924H76.2228V15.7665L73.8672 17.1643ZM77.9226 12.7938C78.2704 12.7887 78.576 12.6932 78.8395 12.5074C79.1029 12.3217 79.3091 12.0585 79.4581 11.7179C79.6073 11.3773 79.6794 10.9799 79.6744 10.5258C79.6794 10.0613 79.6049 9.66396 79.4507 9.33369C79.3017 8.99826 79.0905 8.74282 78.8172 8.56736C78.5436 8.38673 78.2306 8.29902 77.8778 8.30416C77.5449 8.29902 77.2467 8.38414 76.9832 8.5596C76.7198 8.73506 76.5112 8.99053 76.3569 9.32595C76.2029 9.65623 76.126 10.0562 76.126 10.5258C76.126 10.9799 76.2029 11.3773 76.3569 11.7179C76.5159 12.0585 76.7298 12.3217 76.9981 12.5074C77.2666 12.6932 77.5746 12.7887 77.9226 12.7938Z" fill="#1C2346"/>
<path d="M85.6103 14.8375C85.1332 14.8375 84.676 14.7523 84.2386 14.582C83.8063 14.4117 83.4236 14.1717 83.0907 13.8621C82.7577 13.5473 82.5067 13.1809 82.3379 12.7629L84.1867 11.9191C84.3107 12.1617 84.4971 12.3914 84.7457 12.6081C84.9941 12.8248 85.2875 12.9332 85.6254 12.9332C85.8043 12.9332 85.9607 12.9022 86.0951 12.8403C86.2292 12.7732 86.3337 12.6881 86.4082 12.5849C86.4877 12.4817 86.5274 12.3707 86.5274 12.252C86.5274 12.1024 86.4702 11.9733 86.3559 11.865C86.2417 11.7566 86.0951 11.6637 85.9162 11.5863C85.7373 11.5089 85.5483 11.4418 85.3495 11.385C85.1557 11.3283 84.9768 11.2767 84.8128 11.2302C84.435 11.1115 84.0772 10.949 83.7393 10.7425C83.4063 10.531 83.1355 10.2626 82.9266 9.93749C82.718 9.61239 82.6136 9.2176 82.6136 8.75315C82.6136 8.26291 82.7355 7.83199 82.9788 7.46043C83.2274 7.08372 83.5627 6.78956 83.9852 6.57799C84.4128 6.36639 84.8997 6.26062 85.4465 6.26062C86.1272 6.26062 86.7387 6.42317 87.2802 6.74827C87.827 7.0734 88.2145 7.5043 88.4433 8.041L86.6319 8.85378C86.5372 8.68864 86.3981 8.52868 86.2144 8.37386C86.0355 8.21904 85.8067 8.14162 85.5284 8.14162C85.2949 8.14162 85.1011 8.20355 84.9469 8.3274C84.7929 8.45125 84.7157 8.60607 84.7157 8.79185C84.7157 8.97763 84.7929 9.1273 84.9469 9.24083C85.1011 9.35436 85.2973 9.4524 85.5358 9.53497C85.7744 9.61754 86.023 9.69755 86.2815 9.77494C86.4802 9.83172 86.7114 9.91429 86.9746 10.0226C87.2381 10.1259 87.4941 10.2678 87.7425 10.4484C87.9959 10.629 88.2047 10.8612 88.3688 11.1451C88.5376 11.4289 88.6222 11.7772 88.6222 12.1901C88.6222 12.7113 88.483 13.1732 88.2047 13.5757C87.9315 13.973 87.5662 14.2827 87.109 14.5046C86.6565 14.7265 86.1571 14.8375 85.6103 14.8375Z" fill="#1C2346"/>
<path d="M98.1992 14.7136V6.38447H100.443V7.44496H100.484C100.66 7.19156 100.857 6.9774 101.077 6.80246C101.524 6.44123 102.053 6.26062 102.665 6.26062C103.172 6.26062 103.601 6.38962 103.954 6.64765C104.227 6.84001 104.449 7.09803 104.62 7.42173H104.662C104.916 7.08554 105.225 6.82236 105.587 6.63218C106.059 6.38447 106.574 6.26062 107.13 6.26062C107.662 6.26062 108.099 6.35866 108.442 6.55476C108.785 6.74571 109.053 6.99856 109.247 7.31337C109.441 7.62301 109.578 7.9636 109.657 8.33516C109.737 8.70155 109.777 9.05764 109.777 9.40338V14.7136H107.406V9.70528C107.406 9.25115 107.314 8.90282 107.13 8.66026C106.951 8.41256 106.688 8.2887 106.34 8.2887C106.111 8.2887 105.907 8.3429 105.729 8.45125C105.555 8.55446 105.415 8.71187 105.311 8.92346C105.212 9.13503 105.162 9.39565 105.162 9.70528V14.7136H102.806V9.70528C102.806 9.25115 102.715 8.90282 102.531 8.66026C102.347 8.41256 102.081 8.2887 101.733 8.2887C101.395 8.2887 101.114 8.40997 100.89 8.65253C100.667 8.88991 100.555 9.24598 100.555 9.72075V14.7136H98.1992Z" fill="#1C2346"/>
<path d="M90.929 14.4737C91.3814 14.7162 91.8832 14.8375 92.4351 14.8375C93.086 14.8375 93.6625 14.6724 94.1646 14.3421C94.4185 14.1724 94.6496 13.9788 94.8577 13.7615H94.9176C94.9886 13.9308 95.0928 14.0805 95.2306 14.2105C95.5039 14.4685 95.9362 14.6775 96.5276 14.8375L97.3625 12.7939C97.1041 12.6959 96.9326 12.5798 96.8483 12.4456C96.7637 12.3114 96.7216 12.0947 96.7216 11.7954V6.38452H94.3657V11.2922C94.3657 11.5967 94.3085 11.8599 94.1943 12.0818C94.085 12.2985 93.9308 12.4662 93.732 12.5849C93.5382 12.7036 93.3121 12.763 93.0537 12.763C92.7059 12.763 92.4101 12.6391 92.1665 12.3914C91.928 12.1385 91.8087 11.7721 91.8087 11.2922V6.38452H89.4531V11.6173C89.4531 12.3192 89.5849 12.91 89.8481 13.39C90.1166 13.8647 90.4768 14.226 90.929 14.4737Z" fill="#1C2346"/>
<path fill-rule="evenodd" clip-rule="evenodd" d="M65.0825 14.8375C64.312 14.8375 63.6088 14.6542 62.9726 14.2878C62.3415 13.9214 61.8371 13.4157 61.4594 12.7706C61.0867 12.1256 60.9004 11.3824 60.9004 10.5413C60.9004 9.70011 61.0867 8.95699 61.4594 8.31193C61.8371 7.66685 62.3415 7.1637 62.9726 6.80246C63.6088 6.44123 64.312 6.26062 65.0825 6.26062C65.8676 6.26062 66.5759 6.44123 67.207 6.80246C67.8383 7.1637 68.3377 7.66685 68.7054 8.31193C69.0783 8.95699 69.2646 9.70011 69.2646 10.5413C69.2646 11.3824 69.0783 12.1256 68.7054 12.7706C68.3377 13.4157 67.8357 13.9214 67.1995 14.2878C66.5684 14.6542 65.8626 14.8375 65.0825 14.8375ZM65.0825 12.7474C65.4502 12.7474 65.7807 12.6545 66.0738 12.4687C66.3673 12.283 66.5981 12.0249 66.7672 11.6947C66.9361 11.3644 67.0206 10.9799 67.0206 10.5413C67.0206 10.1181 66.9387 9.74139 66.7747 9.41112C66.6106 9.08084 66.3845 8.82281 66.0964 8.63703C65.808 8.44611 65.4751 8.35063 65.0974 8.35063C64.7247 8.35063 64.3891 8.44352 64.0909 8.6293C63.7978 8.80993 63.5666 9.06537 63.3975 9.39565C63.2287 9.72592 63.1441 10.1078 63.1441 10.5413C63.1441 10.9799 63.2287 11.3644 63.3975 11.6947C63.5717 12.0249 63.8052 12.283 64.0983 12.4687C64.3915 12.6545 64.7196 12.7474 65.0825 12.7474Z" fill="#1C2346"/>
<path fill-rule="evenodd" clip-rule="evenodd" d="M55.7606 18.0885C55.0945 18.0885 54.4833 18.0034 53.9267 17.8331C53.3751 17.6679 52.9401 17.4976 52.622 17.3222L53.3973 15.4024C53.6757 15.5779 53.9988 15.7276 54.3664 15.8514C54.7391 15.9804 55.1168 16.0449 55.4995 16.0449C55.8277 16.0449 56.168 15.9882 56.5208 15.8747C56.8739 15.7611 57.1744 15.5805 57.4228 15.3328C57.6714 15.0903 57.7957 14.7703 57.7957 14.3729V13.5679H57.76C57.6142 13.7173 57.457 13.8541 57.2887 13.9781C56.757 14.3652 56.1505 14.5587 55.4698 14.5587C55.0473 14.5587 54.6275 14.4761 54.21 14.311C53.7925 14.1407 53.4122 13.8852 53.0692 13.5447C52.7312 13.1989 52.4606 12.768 52.2568 12.252C52.053 11.7359 51.9512 11.1295 51.9512 10.4329C51.9512 9.50395 52.1251 8.73246 52.4728 8.11834C52.8259 7.49907 53.2781 7.03462 53.8297 6.72499C54.3812 6.41021 54.9554 6.25281 55.5517 6.25281C56.2425 6.25281 56.8463 6.436 57.3632 6.80241C57.5291 6.91889 57.6834 7.04792 57.8257 7.18944H57.8702V6.37666H60.0098V14.2336C60.0098 14.8683 59.9054 15.4257 59.6968 15.9056C59.4879 16.3855 59.1921 16.7881 58.8096 17.1132C58.4319 17.4383 57.9845 17.6809 57.4676 17.8408C56.9507 18.006 56.3817 18.0885 55.7606 18.0885ZM56.0511 12.5693C56.409 12.5693 56.7246 12.4764 56.9979 12.2907C57.2715 12.1049 57.4875 11.8468 57.6465 11.5166C57.8056 11.1811 57.8851 10.7941 57.8851 10.3554C57.8851 9.91162 57.8082 9.53233 57.6539 9.21755C57.4999 8.8976 57.2887 8.65245 57.0204 8.48217C56.7519 8.31185 56.4413 8.22672 56.0885 8.22672C55.7357 8.22672 55.42 8.31444 55.1417 8.4899C54.8634 8.66021 54.6447 8.90533 54.4857 9.22528C54.3317 9.54524 54.2545 9.92195 54.2545 10.3554C54.2545 10.7889 54.3317 11.1734 54.4857 11.5088C54.6397 11.8391 54.8509 12.0997 55.1194 12.2907C55.3877 12.4764 55.6983 12.5693 56.0511 12.5693Z" fill="#1C2346"/>
<path fill-rule="evenodd" clip-rule="evenodd" d="M47.1704 14.8375C46.3999 14.8375 45.6967 14.6542 45.0605 14.2878C44.4294 13.9214 43.925 13.4157 43.5473 12.7706C43.1746 12.1256 42.9883 11.3824 42.9883 10.5413C42.9883 9.70011 43.1746 8.95699 43.5473 8.31193C43.925 7.66685 44.4294 7.1637 45.0605 6.80246C45.6967 6.44123 46.3999 6.26062 47.1704 6.26062C47.9555 6.26062 48.6638 6.44123 49.2949 6.80246C49.9262 7.1637 50.4256 7.66685 50.7932 8.31193C51.1662 8.95699 51.3525 9.70011 51.3525 10.5413C51.3525 11.3824 51.1662 12.1256 50.7932 12.7706C50.4256 13.4157 49.9236 13.9214 49.2874 14.2878C48.6563 14.6542 47.9505 14.8375 47.1704 14.8375ZM47.1704 12.7474C47.538 12.7474 47.8686 12.6545 48.1617 12.4687C48.4551 12.283 48.686 12.0249 48.8551 11.6947C49.024 11.3644 49.1085 10.9799 49.1085 10.5413C49.1085 10.1181 49.0266 9.74139 48.8625 9.41112C48.6985 9.08084 48.4724 8.82281 48.1843 8.63703C47.8959 8.44611 47.563 8.35063 47.1852 8.35063C46.8126 8.35063 46.477 8.44352 46.1788 8.6293C45.8857 8.80993 45.6545 9.06537 45.4854 9.39565C45.3166 9.72592 45.232 10.1078 45.232 10.5413C45.232 10.9799 45.3166 11.3644 45.4854 11.6947C45.6596 12.0249 45.8931 12.283 46.1862 12.4687C46.4794 12.6545 46.8075 12.7474 47.1704 12.7474Z" fill="#1C2346"/>
<path d="M36.6211 14.7136V3.30359H39.0663V12.4532H43.0247V14.7136H36.6211Z" fill="#1C2346"/>
<path fill-rule="evenodd" clip-rule="evenodd" d="M73.8702 18.8138V21.1023H73.8032C73.7059 21.0145 73.6041 20.9319 73.4973 20.8546C72.9757 20.4727 72.3742 20.2818 71.6933 20.2818C71.0919 20.2818 70.5154 20.4444 69.9638 20.7695C69.4122 21.0946 68.9648 21.5771 68.622 22.217C68.2791 22.8569 68.115 23.6542 68.1298 24.6089C68.12 25.3314 68.2144 25.961 68.4132 26.4977C68.612 27.0292 68.8805 27.4704 69.2184 27.8214C69.5564 28.1723 69.9341 28.4355 70.3516 28.6108C70.769 28.7864 71.1913 28.8742 71.6188 28.8742C72.2947 28.8742 72.9009 28.678 73.4377 28.2858C73.7067 28.0867 73.9476 27.8544 74.1605 27.5892H74.2339C74.2898 27.7386 74.3747 27.8805 74.4889 28.0149C74.6429 28.1851 74.8467 28.3425 75.1001 28.487C75.3586 28.6265 75.6719 28.7553 76.0395 28.8742L76.867 26.8305C76.6383 26.7428 76.4745 26.637 76.3751 26.5132C76.2757 26.3893 76.2258 26.1752 76.2258 25.8707V17.416L73.8702 18.8138ZM73.0949 26.5441C72.8264 26.7299 72.5184 26.8254 72.1704 26.8305C71.8274 26.8254 71.5218 26.7299 71.2536 26.5441C70.9851 26.3584 70.7765 26.0952 70.6272 25.7546C70.4833 25.414 70.4136 25.0166 70.4186 24.5625C70.4136 24.098 70.4881 23.7007 70.6423 23.3704C70.7963 23.035 71.0076 22.7795 71.2758 22.6041C71.5491 22.4234 71.8624 22.3357 72.2152 22.3409C72.5481 22.3357 72.8463 22.4208 73.1098 22.5963C73.3733 22.7718 73.5819 23.0272 73.7359 23.3626C73.8901 23.6929 73.9696 24.0929 73.9744 24.5625C73.9696 25.0166 73.8901 25.414 73.7359 25.7546C73.5819 26.0952 73.3682 26.3584 73.0949 26.5441Z" fill="#C3C3C4"/>
<path d="M103.113 28.7503V20.4211H105.395V21.5125H105.43C105.494 21.4139 105.564 21.321 105.641 21.2339C105.919 20.9242 106.252 20.692 106.64 20.5372C107.027 20.3772 107.442 20.2972 107.884 20.2972C108.421 20.2972 108.883 20.4262 109.271 20.6843C109.659 20.9423 109.957 21.2958 110.166 21.7448C110.374 22.1937 110.479 22.7124 110.479 23.3007V28.7503H108.123V23.8348C108.123 23.3342 108.009 22.9601 107.78 22.7124C107.551 22.4595 107.241 22.3331 106.848 22.3331C106.59 22.3331 106.356 22.3924 106.147 22.5111C105.939 22.6246 105.772 22.7949 105.648 23.022C105.529 23.2439 105.469 23.5226 105.469 23.858V28.7503H103.113Z" fill="#C3C3C4"/>
<path fill-rule="evenodd" clip-rule="evenodd" d="M98.2722 28.8742C97.5017 28.8742 96.7985 28.6909 96.1624 28.3246C95.5312 27.9581 95.0268 27.4524 94.6491 26.8073C94.2765 26.1622 94.0898 25.4191 94.0898 24.5779C94.0898 23.7368 94.2765 22.9936 94.6491 22.3486C95.0268 21.7035 95.5312 21.2003 96.1624 20.8391C96.7985 20.4778 97.5017 20.2972 98.2722 20.2972C99.0573 20.2972 99.7656 20.4778 100.397 20.8391C101.028 21.2003 101.527 21.7035 101.895 22.3486C102.268 22.9936 102.454 23.7368 102.454 24.5779C102.454 25.4191 102.268 26.1622 101.895 26.8073C101.527 27.4524 101.025 27.9581 100.389 28.3246C99.7582 28.6909 99.0523 28.8742 98.2722 28.8742ZM98.2722 26.784C98.6399 26.784 98.9704 26.6911 99.2636 26.5054C99.5567 26.3196 99.7878 26.0616 99.957 25.7313C100.126 25.401 100.21 25.0166 100.21 24.5779C100.21 24.1547 100.128 23.778 99.9644 23.4478C99.8003 23.1175 99.5742 22.8595 99.2861 22.6737C98.9977 22.4827 98.6648 22.3872 98.2871 22.3872C97.9144 22.3872 97.5788 22.4801 97.2806 22.6659C96.9875 22.8466 96.7563 23.102 96.5872 23.4323C96.4184 23.7625 96.3338 24.1444 96.3338 24.5779C96.3338 25.0166 96.4184 25.401 96.5872 25.7313C96.7614 26.0616 96.9949 26.3196 97.2881 26.5054C97.5812 26.6911 97.9094 26.784 98.2722 26.784Z" fill="#C3C3C4"/>
<path d="M91.0449 28.7504V20.4211H93.4005V28.7504H91.0449Z" fill="#C3C3C4"/>
<path d="M91.2085 19.0355C91.4868 19.3245 91.8274 19.469 92.23 19.469C92.6324 19.469 92.9703 19.3245 93.2439 19.0355C93.5222 18.7465 93.6613 18.3956 93.6613 17.9827C93.6613 17.5596 93.5222 17.2061 93.2439 16.9223C92.9703 16.6333 92.6324 16.4888 92.23 16.4888C91.8274 16.4888 91.4868 16.6333 91.2085 16.9223C90.9302 17.2061 90.791 17.5596 90.791 17.9827C90.791 18.3956 90.9302 18.7465 91.2085 19.0355Z" fill="#C3C3C4"/>
<path d="M86.7172 28.0226C87.1993 28.5902 87.9349 28.8742 88.9238 28.8742C89.227 28.8742 89.5252 28.8456 89.8184 28.7889C90.1166 28.7322 90.3776 28.6472 90.6014 28.5335L89.8409 26.6061C89.7563 26.6525 89.6593 26.6912 89.5501 26.7222C89.4407 26.7531 89.3291 26.7686 89.2146 26.7686C88.9712 26.7686 88.7648 26.6912 88.5959 26.5364C88.4318 26.3764 88.3499 26.1184 88.3499 25.7623V22.4492H90.2062V20.4212H88.3499V18.0215H85.9941V20.4212H84.6523V22.4492H85.9941V25.8242C85.9941 26.717 86.2353 27.4498 86.7172 28.0226Z" fill="#C3C3C4"/>
<path fill-rule="evenodd" clip-rule="evenodd" d="M78.4902 28.5335C78.9026 28.7605 79.3797 28.8742 79.9215 28.8742C80.5476 28.8742 81.0994 28.7451 81.5765 28.4869C81.9622 28.2805 82.2445 28.0509 82.4234 27.7981H82.4597C82.5294 27.9219 82.6225 28.0458 82.7393 28.1697C82.9729 28.4173 83.3209 28.6213 83.7832 28.7812L84.0588 28.8742L84.8863 26.8305L84.7074 26.7686C84.5335 26.7118 84.4116 26.6112 84.3422 26.4667C84.2775 26.317 84.2452 26.1003 84.2452 25.8164V23.3084C84.2452 23.0091 84.2104 22.6866 84.141 22.3408C84.0763 21.9899 83.9372 21.6622 83.7235 21.3577C83.5096 21.0481 83.1817 20.7952 82.7393 20.5991C82.297 20.3979 81.7006 20.2972 80.9502 20.2972C80.4681 20.2972 80.0159 20.3385 79.5933 20.4211C79.1759 20.4985 78.8032 20.5966 78.4753 20.7152C78.1522 20.8339 77.8911 20.9526 77.6923 21.0713L78.4753 22.9136C78.659 22.7898 78.8777 22.6814 79.1314 22.5885C79.3848 22.4905 79.6482 22.4157 79.9215 22.364C80.1948 22.3073 80.4508 22.2789 80.6894 22.2789C80.898 22.2789 81.0843 22.3047 81.2484 22.3563C81.4125 22.4027 81.5516 22.4724 81.6659 22.5653C81.7801 22.6582 81.8646 22.7717 81.9192 22.9059C81.9789 23.0349 82.0088 23.1794 82.0088 23.3394V23.7574H80.4954C79.7996 23.7574 79.2032 23.8683 78.7062 24.0902C78.2142 24.3121 77.8365 24.6166 77.5731 25.0037C77.3146 25.3907 77.1855 25.8345 77.1855 26.3351C77.1855 26.8099 77.2998 27.2382 77.5285 27.62C77.762 28.0019 78.0825 28.3064 78.4902 28.5335ZM80.7787 25.2901H82.1207V25.8087C82.1207 26.1132 82.0261 26.3557 81.8373 26.5363C81.6534 26.717 81.4347 26.846 81.1813 26.9234C80.9279 27.0008 80.7066 27.0395 80.5179 27.0395C80.314 27.0395 80.1301 27.006 79.9663 26.9389C79.8073 26.8666 79.6829 26.7686 79.5933 26.6447C79.504 26.5157 79.4592 26.3609 79.4592 26.1803C79.4592 25.8758 79.5711 25.6513 79.7948 25.5068C80.0233 25.3623 80.3514 25.2901 80.7787 25.2901Z" fill="#C3C3C4"/>
<path d="M60.2246 28.7503V20.4211H62.5057V21.5125H62.5418C62.6048 21.4139 62.6748 21.321 62.752 21.2339C63.0303 20.9242 63.3632 20.692 63.7507 20.5372C64.1385 20.3772 64.5533 20.2972 64.9957 20.2972C65.5324 20.2972 65.9947 20.4262 66.3822 20.6843C66.77 20.9423 67.0682 21.2958 67.2768 21.7448C67.4857 22.1937 67.5901 22.7124 67.5901 23.3007V28.7503H65.2342V23.8348C65.2342 23.3342 65.12 22.9601 64.8913 22.7124C64.6628 22.4595 64.3521 22.3331 63.9596 22.3331C63.7011 22.3331 63.4676 22.3924 63.2588 22.5111C63.0501 22.6246 62.8834 22.7949 62.7594 23.022C62.6401 23.2439 62.5805 23.5226 62.5805 23.858V28.7503H60.2246Z" fill="#C3C3C4"/>
<path d="M54.6811 28.8742C54.1293 28.8742 53.6275 28.7529 53.1751 28.5104C52.7229 28.2627 52.3627 27.9014 52.0942 27.4266C51.8307 26.9467 51.6992 26.3558 51.6992 25.6539V20.4211H54.0548V25.3288C54.0548 25.8088 54.1741 26.1751 54.4126 26.428C54.6562 26.6757 54.9518 26.7996 55.2998 26.7996C55.5582 26.7996 55.7843 26.7402 55.9781 26.6215C56.1769 26.5029 56.3311 26.3351 56.4403 26.1184C56.5546 25.8965 56.6118 25.6333 56.6118 25.3288V20.4211H58.9674V25.832C58.9674 26.1313 59.0098 26.348 59.0944 26.4822C59.1787 26.6164 59.3502 26.7325 59.6086 26.8305L58.7737 28.8742C58.1823 28.7141 57.75 28.5052 57.4765 28.247C57.3389 28.1171 57.2345 27.9675 57.1637 27.7981H57.1038C56.8957 28.0155 56.6646 28.209 56.4107 28.3788C55.9086 28.7091 55.3321 28.8742 54.6811 28.8742Z" fill="#C3C3C4"/>
<path fill-rule="evenodd" clip-rule="evenodd" d="M46.9089 28.8742C46.1384 28.8742 45.4352 28.6909 44.7991 28.3246C44.168 27.9581 43.6636 27.4524 43.2858 26.8073C42.9132 26.1622 42.7266 25.4191 42.7266 24.5779C42.7266 23.7368 42.9132 22.9936 43.2858 22.3486C43.6636 21.7035 44.168 21.2003 44.7991 20.8391C45.4352 20.4778 46.1384 20.2972 46.9089 20.2972C47.6941 20.2972 48.4023 20.4778 49.0334 20.8391C49.6645 21.2003 50.1642 21.7035 50.5318 22.3486C50.9047 22.9936 51.0911 23.7368 51.0911 24.5779C51.0911 25.4191 50.9047 26.1622 50.5318 26.8073C50.1642 27.4524 49.6621 27.9581 49.026 28.3246C48.3949 28.6909 47.689 28.8742 46.9089 28.8742ZM46.9089 26.784C47.2766 26.784 47.6071 26.6911 47.9003 26.5054C48.1934 26.3196 48.4246 26.0616 48.5937 25.7313C48.7625 25.401 48.8471 25.0166 48.8471 24.5779C48.8471 24.1547 48.7652 23.778 48.6011 23.4478C48.437 23.1175 48.2109 22.8595 47.9228 22.6737C47.6344 22.4827 47.3015 22.3872 46.9238 22.3872C46.5511 22.3872 46.2155 22.4801 45.9174 22.6659C45.6242 22.8466 45.3931 23.102 45.224 23.4323C45.0551 23.7625 44.9706 24.1444 44.9706 24.5779C44.9706 25.0166 45.0551 25.401 45.224 25.7313C45.3981 26.0616 45.6316 26.3196 45.9248 26.5054C46.2179 26.6911 46.5461 26.784 46.9089 26.784Z" fill="#C3C3C4"/>
<path d="M36.6016 28.7504V17.3403H43.0051V19.6007H39.0467V22.2248H42.3417V24.4851H39.0467V28.7504H36.6016Z" fill="#C3C3C4"/>
<path d="M31.1117 14.5621H27.3333C27.3317 14.7621 27.2185 14.9429 27.045 15.0328L24.6105 16.2933C24.4369 16.3832 24.3261 16.564 24.3125 16.764H28.0908C28.103 16.564 28.2141 16.3832 28.3877 16.2933L30.8223 15.0328C30.9956 14.943 31.1085 14.7622 31.1117 14.5621Z" fill="#F26CF9"/>
<path d="M0.902344 16.764H4.6808C4.68245 16.564 4.79555 16.3832 4.96911 16.2933L7.40366 15.0328C7.57725 14.9429 7.68802 14.7621 7.70164 14.5621H3.92318C3.91123 14.7622 3.80011 14.943 3.62655 15.0328L1.19201 16.2933C1.01844 16.3832 0.905669 16.564 0.902344 16.764Z" fill="#F26CF9"/>
<path d="M9.97008 14.5621C9.95468 14.7621 9.84423 14.9429 9.67065 15.0328L7.23609 16.2933C7.06251 16.3832 6.94906 16.564 6.94922 16.764H10.7326C10.7246 16.5645 10.8395 16.3832 11.0132 16.2933L13.4478 15.0328C13.6214 14.9429 13.7304 14.7616 13.7535 14.5621H9.97008Z" fill="#F26CF9"/>
<path d="M21.2826 14.5621C21.2906 14.7616 21.1757 14.9429 21.002 15.0328L18.5674 16.2933C18.3938 16.3832 18.2848 16.5645 18.2617 16.764H22.0451C22.0605 16.564 22.171 16.3832 22.3445 16.2933L24.7791 15.0328C24.9527 14.9429 25.0661 14.7621 25.066 14.5621H21.2826Z" fill="#F26CF9"/>
</g>
<defs>
<clipPath id="clip0_310_11887">
<rect width="110" height="30" fill="white" transform="translate(0.666016 0.657227)"/>
</clipPath>
</defs>
</svg>
