<svg width="121" height="27" viewBox="0 0 121 27" fill="none" xmlns="http://www.w3.org/2000/svg">
<g clip-path="url(#clip0_314_13027)">
<path fill-rule="evenodd" clip-rule="evenodd" d="M12.8563 3.62578L14.5626 0.657227L19.4 3.46328L17.6943 6.43118C17.3947 6.95183 17.8431 7.58493 18.4307 7.47118L21.6996 6.83743L22.7576 12.3475L19.4886 12.9806C14.2009 14.005 10.1639 8.31098 12.8563 3.62578Z" fill="#F26CF9"/>
<path fill-rule="evenodd" clip-rule="evenodd" d="M9.90129 23.6886L8.195 26.6572L3.35694 23.8518L5.06324 20.8832C5.36282 20.3626 4.91441 19.7295 4.32624 19.8432L1.05794 20.4763L0 14.9669L3.26894 14.3338C8.55671 13.3094 12.5931 19.0034 9.90129 23.6886Z" fill="#D3DAF9"/>
<path fill-rule="evenodd" clip-rule="evenodd" d="M10.0484 3.62578L8.34279 0.657227L3.50473 3.46328L5.21103 6.43118C5.50997 6.95183 5.0622 7.58493 4.47403 7.47118L1.20508 6.83743L0.148438 12.3475L3.41673 12.9806C8.70514 14.005 12.7421 8.31098 10.0491 3.62578H10.0484Z" fill="#1C2346"/>
<path fill-rule="evenodd" clip-rule="evenodd" d="M12.7147 23.6886L14.4197 26.6572L19.2578 23.8518L17.5515 20.8832C17.2525 20.3626 17.7003 19.7295 18.2885 19.8432L21.5568 20.4763L22.6147 14.9669L19.3458 14.3338C14.058 13.3094 10.0217 19.0034 12.7134 23.6886H12.7147Z" fill="#5562A2"/>
<path d="M105.544 20.2567V14.7317C105.544 13.966 105.719 13.2789 106.07 12.6712C106.433 12.0511 106.947 11.5649 107.613 11.2119C108.279 10.8596 109.072 10.6835 109.991 10.6835C110.42 10.6792 110.848 10.7344 111.262 10.8473C111.649 10.9448 112 11.0845 112.315 11.2665C112.641 11.4368 112.92 11.6435 113.15 11.8866H113.186C113.433 11.64 113.714 11.4311 114.021 11.2665C114.358 11.0801 114.718 10.9391 115.092 10.8473C115.513 10.7352 115.946 10.6801 116.381 10.6835C117.301 10.6835 118.093 10.859 118.759 11.2119C119.424 11.5649 119.939 12.0504 120.302 12.6712C120.666 13.2789 120.847 13.9653 120.847 14.7317V20.2567H118.015V14.8227C118.015 14.5191 117.936 14.2455 117.779 14.0024C117.635 13.7481 117.429 13.5347 117.18 13.3823C116.917 13.2219 116.615 13.1397 116.308 13.145C115.981 13.145 115.685 13.2243 115.419 13.3823C115.17 13.5345 114.964 13.7479 114.82 14.0024C114.673 14.2503 114.598 14.5342 114.602 14.8227V20.2567H111.789V14.8227C111.789 14.5191 111.71 14.2455 111.552 14.0024C111.405 13.7444 111.192 13.5304 110.935 13.3823C110.673 13.2219 110.37 13.1397 110.063 13.145C109.737 13.145 109.44 13.2243 109.174 13.3823C108.926 13.5345 108.719 13.7479 108.575 14.0024C108.429 14.2504 108.353 14.5343 108.357 14.8227V20.2567H105.544ZM99.3896 20.4757C98.4339 20.4757 97.6044 20.2937 96.9029 19.9284C96.2132 19.5514 95.6807 19.047 95.3054 18.4152C94.9301 17.7711 94.7424 17.0593 94.7424 16.2813V10.9019H97.5565V16.2085C97.5565 16.5367 97.6348 16.8409 97.792 17.1204C97.9492 17.3876 98.1615 17.6066 98.4274 17.7769C98.7057 17.9349 99.0208 18.0142 99.3715 18.0142C99.7105 18.0142 100.013 17.9349 100.279 17.7769C100.558 17.6066 100.776 17.3876 100.933 17.1204C101.09 16.8409 101.169 16.5367 101.169 16.2085V10.9019H103.982V16.2813C103.982 17.0593 103.801 17.7711 103.438 18.4152C103.075 19.047 102.549 19.5521 101.859 19.9284C101.181 20.2931 100.358 20.4757 99.3896 20.4757ZM85.6791 20.2567V18.0142H90.1632C90.2842 18.0142 90.3929 17.9895 90.4899 17.9407C90.5864 17.8803 90.6653 17.801 90.7255 17.7041C90.7848 17.6083 90.8162 17.4978 90.8162 17.385C90.8162 17.2722 90.7848 17.1616 90.7255 17.0658C90.6689 16.9721 90.5873 16.8962 90.4899 16.8468C90.3919 16.7857 90.2785 16.7541 90.1632 16.7558H88.5294C87.9237 16.7558 87.3731 16.6583 86.8774 16.4639C86.4065 16.268 86.0027 15.9384 85.7153 15.5156C85.4371 15.0781 85.2979 14.5126 85.2979 13.8197C85.2979 13.2848 85.4248 12.7986 85.6791 12.3611C85.9436 11.925 86.3115 11.5614 86.7499 11.3029C87.2075 11.0362 87.7279 10.8977 88.2569 10.9019H92.7404V13.1632H88.6924C88.5317 13.16 88.3758 13.2188 88.2569 13.3277C88.2039 13.3798 88.162 13.4422 88.1338 13.5112C88.1057 13.5801 88.0919 13.6542 88.0932 13.7287C88.0932 13.899 88.1482 14.0446 88.2569 14.1662C88.3758 14.275 88.5317 14.3338 88.6924 14.3306H90.29C90.9675 14.3306 91.5485 14.434 92.0325 14.64C92.5288 14.835 92.91 15.1509 93.1765 15.589C93.4548 16.0265 93.5939 16.5913 93.5939 17.2842C93.5939 17.8315 93.4548 18.3301 93.1765 18.7792C92.9125 19.2269 92.5369 19.5979 92.0869 19.8556C91.6391 20.1234 91.1312 20.2567 90.5624 20.2567H85.6791ZM79.5488 10.6835C80.3357 10.6835 81.0312 10.8109 81.6362 11.0663C82.2305 11.2939 82.7647 11.6557 83.1976 12.1239C83.6388 12.5825 83.979 13.1293 84.196 13.7287C84.4257 14.3365 84.5409 15.0112 84.5409 15.7528C84.5409 16.6765 84.3474 17.4974 83.9598 18.2144C83.6018 18.9015 83.0617 19.4758 82.3991 19.8738C81.7333 20.2749 80.9588 20.4757 80.0755 20.4757C79.7002 20.4757 79.3431 20.427 79.004 20.3301C78.6829 20.2353 78.3773 20.0938 78.0968 19.9102C77.8325 19.73 77.6045 19.5011 77.4252 19.2355H77.3702V24.2145H74.5568V15.7522C74.5568 14.7187 74.7625 13.8249 75.1741 13.0716C75.573 12.33 76.1786 11.7215 76.9166 11.3205C77.6672 10.8954 78.5446 10.6828 79.5488 10.6828V10.6835ZM79.5488 13.1268C79.1134 13.1268 78.7322 13.236 78.4055 13.4551C78.0904 13.6618 77.8484 13.9536 77.6788 14.3306C77.5099 14.6946 77.4252 15.1087 77.4252 15.5702C77.4252 16.0323 77.5099 16.4457 77.6788 16.8104C77.8484 17.175 78.0904 17.4669 78.4055 17.6859C78.7322 17.8926 79.1134 17.996 79.5488 17.996C79.9843 17.996 80.3596 17.892 80.6741 17.6859C80.9905 17.4653 81.2416 17.1627 81.4007 16.8104C81.5819 16.4457 81.6725 16.0323 81.6725 15.5702C81.6725 15.1087 81.5819 14.6953 81.4007 14.3306C81.2312 13.9536 80.9892 13.6611 80.6741 13.4551C80.3596 13.236 79.9843 13.1268 79.5488 13.1268ZM70.281 20.2567V10.9019H73.1132V20.2567H70.281ZM71.6968 9.8443C71.249 9.8443 70.8621 9.6805 70.5353 9.35225C70.2085 9.024 70.0448 8.63465 70.0448 8.18485C70.0448 7.73505 70.2085 7.34635 70.5353 7.0181C70.8621 6.6775 71.249 6.5072 71.6968 6.5072C72.1445 6.5072 72.5321 6.6775 72.8589 7.0181C73.1856 7.34635 73.3487 7.73505 73.3487 8.18485C73.3487 8.63465 73.1856 9.02335 72.8589 9.35225C72.5321 9.6805 72.1445 9.8443 71.6968 9.8443ZM64.1262 20.4757C63.1705 20.4757 62.3112 20.2632 61.5483 19.8374C60.7999 19.4253 60.1737 18.8213 59.7333 18.087C59.2978 17.3453 59.0798 16.5127 59.0798 15.5884C59.0798 14.6524 59.2978 13.8197 59.7333 13.0904C60.1737 12.356 60.7999 11.752 61.5483 11.34C62.3112 10.9019 63.1705 10.6835 64.1262 10.6835C65.0825 10.6835 65.9354 10.9019 66.6859 11.34C67.4317 11.7492 68.0527 12.3542 68.4828 13.0904C68.9306 13.8197 69.1545 14.6524 69.1545 15.5884C69.1545 16.5127 68.9306 17.3453 68.4828 18.087C68.0527 18.8231 67.4317 19.4282 66.6859 19.8374C65.9237 20.2632 65.0702 20.4757 64.1262 20.4757ZM64.1262 18.0142C64.5739 18.0142 64.9615 17.9043 65.2883 17.6859C65.6151 17.4671 65.8782 17.1649 66.0505 16.8104C66.2324 16.4457 66.3229 16.0323 66.3229 15.5702C66.3229 15.1204 66.2324 14.7135 66.0505 14.3482C65.8781 13.9938 65.6151 13.6919 65.2883 13.4733C64.9615 13.2542 64.5739 13.145 64.1262 13.145C63.6784 13.145 63.285 13.2542 62.9466 13.4733C62.6196 13.6921 62.3563 13.9942 62.1837 14.3488C61.9988 14.729 61.9057 15.1477 61.9119 15.5708C61.9119 16.0323 62.0025 16.4457 62.1837 16.8104C62.3564 17.1649 62.6196 17.467 62.9466 17.6859C63.285 17.9043 63.6784 18.0142 64.1262 18.0142ZM49.9355 23.9591V21.5333H54.5821C54.7639 21.5333 54.9153 21.4728 55.0363 21.3513C55.0953 21.2989 55.1421 21.2341 55.1734 21.1616C55.2047 21.089 55.2198 21.0104 55.2175 20.9314V18.8709H55.1631C54.9333 19.1394 54.6711 19.3782 54.3828 19.582C54.1162 19.777 53.8134 19.9226 53.4749 20.0201C53.1148 20.1217 52.7419 20.1708 52.3678 20.1657C51.5448 20.1657 50.8065 19.9707 50.1529 19.582C49.5117 19.1809 49.0031 18.6278 48.6278 17.9225C48.2655 17.2179 48.0836 16.4152 48.0836 15.5156C48.0836 14.6283 48.2713 13.8197 48.6466 13.0904C49.0335 12.3611 49.5965 11.7774 50.3348 11.34C51.0724 10.9019 51.9744 10.6835 53.0395 10.6835C54.056 10.6835 54.9334 10.896 55.6717 11.3218C56.4131 11.726 57.0192 12.341 57.4142 13.0898C57.8258 13.8438 58.0315 14.7317 58.0315 15.7528V21.2232C58.0315 22.0617 57.7837 22.7247 57.2874 23.2109C56.8034 23.7095 56.1318 23.9584 55.2725 23.9584L49.9355 23.9591ZM53.0576 17.7951C53.4931 17.7951 53.8684 17.6976 54.1835 17.5033C54.4944 17.3005 54.745 17.017 54.9088 16.683C55.0809 16.3313 55.1681 15.9438 55.1631 15.552C55.1631 15.1145 55.079 14.7135 54.9095 14.3488C54.7399 13.9842 54.4979 13.6982 54.1828 13.4915C53.8684 13.2724 53.4931 13.1632 53.0569 13.1632C52.6338 13.1632 52.2585 13.2666 51.9317 13.4733C51.6172 13.68 51.3752 13.9595 51.2057 14.3118C51.0368 14.6647 50.9521 15.0593 50.9521 15.4974C50.9521 15.9231 51.0362 16.3118 51.2057 16.6648C51.3752 17.0047 51.6172 17.2784 51.9324 17.4851C52.2585 17.6918 52.6338 17.7951 53.0576 17.7951ZM42.3643 20.4757C41.4086 20.4757 40.5493 20.2632 39.7871 19.8374C39.0384 19.4254 38.4119 18.8214 37.9714 18.087C37.5359 17.3453 37.3179 16.5127 37.3179 15.5884C37.3179 14.6524 37.5359 13.8197 37.9714 13.0904C38.4119 12.3559 39.0384 11.7519 39.7871 11.34C40.5493 10.9019 41.4086 10.6835 42.3643 10.6835C43.3207 10.6835 44.1735 10.9019 44.9241 11.34C45.6698 11.7492 46.2908 12.3542 46.7209 13.0904C47.1687 13.8197 47.3926 14.6524 47.3926 15.5884C47.3926 16.5127 47.1687 17.3453 46.7209 18.087C46.2908 18.8231 45.6698 19.4281 44.9241 19.8374C44.1618 20.2632 43.3084 20.4757 42.3643 20.4757ZM42.3643 18.0142C42.8121 18.0142 43.199 17.9043 43.5264 17.6859C43.8531 17.4669 44.1162 17.1648 44.2887 16.8104C44.4698 16.4457 44.5604 16.0323 44.5604 15.5702C44.5604 15.1204 44.4698 14.7135 44.2887 14.3482C44.1161 13.9939 43.8531 13.692 43.5264 13.4733C43.1996 13.2542 42.8121 13.145 42.3643 13.145C41.9165 13.145 41.5231 13.2542 41.1847 13.4733C40.8577 13.6921 40.5944 13.9942 40.4218 14.3488C40.237 14.729 40.1439 15.1477 40.1501 15.5708C40.1501 16.0323 40.2407 16.4457 40.4218 16.8104C40.5945 17.1649 40.8578 17.467 41.1847 17.6859C41.5231 17.9043 41.9165 18.0142 42.3643 18.0142ZM33.3534 20.2567C32.5665 20.2567 31.8768 20.0812 31.2841 19.7282C30.7076 19.3924 30.2312 18.9076 29.9045 18.3242C29.5778 17.7405 29.4141 17.0957 29.4141 16.3911V7.49195H32.4637V16.6095C32.4637 16.902 32.5672 17.1568 32.7723 17.3759C32.9781 17.5943 33.2317 17.7041 33.5345 17.7041H36.8928V20.2567H33.3534Z" fill="#1C2346"/>
</g>
<defs>
<clipPath id="clip0_314_13027">
<rect width="121" height="26" fill="white" transform="translate(0 0.657227)"/>
</clipPath>
</defs>
</svg>
