<svg width="93" height="22" viewBox="0 0 93 22" fill="none" xmlns="http://www.w3.org/2000/svg">
<g clip-path="url(#clip0_314_13120)">
<path fill-rule="evenodd" clip-rule="evenodd" d="M8.50692 14.8572C7.81375 14.8572 7.14896 14.5807 6.6588 14.0884C6.16865 13.5961 5.89329 12.9284 5.89329 12.2322V0.157227H0.666016V12.2322C0.666016 16.5813 4.17665 20.1072 8.50692 20.1072H14.2569V14.8572H8.50692ZM24.1887 5.40723C23.5709 5.40723 22.9592 5.52944 22.3884 5.7669C21.8176 6.00435 21.299 6.35239 20.8621 6.79115C20.4253 7.2299 20.0787 7.75078 19.8423 8.32405C19.6059 8.89731 19.4842 9.51173 19.4842 10.1322C19.4842 10.7527 19.6059 11.3671 19.8423 11.9404C20.0787 12.5137 20.4253 13.0345 20.8621 13.4733C21.299 13.9121 21.8176 14.2601 22.3884 14.4976C22.9592 14.735 23.5709 14.8572 24.1887 14.8572C25.4365 14.8572 26.6331 14.3594 27.5154 13.4733C28.3976 12.5872 28.8933 11.3854 28.8933 10.1322C28.8933 8.87908 28.3976 7.67726 27.5154 6.79115C26.6331 5.90504 25.4365 5.40723 24.1887 5.40723ZM14.2569 10.1322C14.2569 4.6234 18.7038 0.157227 24.1887 0.157227C29.6737 0.157227 34.1206 4.6234 34.1206 10.1322C34.1206 15.6411 29.6737 20.1072 24.1887 20.1072C18.7038 20.1072 14.2569 15.6411 14.2569 10.1322ZM80.6433 5.40723C79.3956 5.40723 78.1989 5.90504 77.3167 6.79115C76.4344 7.67726 75.9387 8.87908 75.9387 10.1322C75.9387 11.3854 76.4344 12.5872 77.3167 13.4733C78.1989 14.3594 79.3956 14.8572 80.6433 14.8572C81.891 14.8572 83.0876 14.3594 83.9699 13.4733C84.8522 12.5872 85.3478 11.3854 85.3478 10.1322C85.3478 8.87908 84.8522 7.67726 83.9699 6.79115C83.0876 5.90504 81.891 5.40723 80.6433 5.40723ZM70.7115 10.1322C70.7115 4.6234 75.1583 0.157227 80.6433 0.157227C86.1283 0.157227 90.5751 4.6234 90.5751 10.1322C90.5751 15.6411 86.1283 20.1072 80.6433 20.1072C75.1583 20.1072 70.7115 15.6411 70.7115 10.1322ZM45.0978 0.157227C39.6129 0.157227 35.166 4.6234 35.166 10.1322C35.166 15.6411 39.6129 20.1072 45.0978 20.1072H59.7342C60.7634 20.1072 61.7561 19.9497 62.6897 19.6578L65.4842 21.1572L68.4993 15.4851C69.2652 14.0412 69.6659 12.4303 69.666 10.7943V10.1322C69.666 4.6234 65.2192 0.157227 59.7342 0.157227H45.0978ZM64.4387 10.1322C64.4387 8.87908 63.9431 7.67726 63.0608 6.79115C62.1785 5.90504 60.9819 5.40723 59.7342 5.40723H45.0978C44.48 5.40723 43.8683 5.52944 43.2975 5.7669C42.7267 6.00435 42.2081 6.35239 41.7712 6.79115C41.3344 7.2299 40.9878 7.75078 40.7514 8.32405C40.515 8.89731 40.3933 9.51173 40.3933 10.1322C40.3933 10.7527 40.515 11.3671 40.7514 11.9404C40.9878 12.5137 41.3344 13.0345 41.7712 13.4733C42.2081 13.9121 42.7267 14.2601 43.2975 14.4976C43.8683 14.735 44.48 14.8572 45.0978 14.8572H59.7342C60.9756 14.8573 62.1667 14.3645 63.0479 13.4863C63.9292 12.6081 64.4291 11.4157 64.4387 10.169V10.1322Z" fill="#37437D"/>
<path d="M92.6664 1.46973C92.6664 1.81782 92.5287 2.15166 92.2836 2.3978C92.0385 2.64395 91.7061 2.78223 91.3596 2.78223C91.013 2.78223 90.6806 2.64395 90.4355 2.3978C90.1904 2.15166 90.0527 1.81782 90.0527 1.46973C90.0527 1.12163 90.1904 0.78779 90.4355 0.541649C90.6806 0.295507 91.013 0.157227 91.3596 0.157227C91.7061 0.157227 92.0385 0.295507 92.2836 0.541649C92.5287 0.78779 92.6664 1.12163 92.6664 1.46973Z" fill="#37437D"/>
</g>
<defs>
<clipPath id="clip0_314_13120">
<rect width="92" height="21" fill="white" transform="translate(0.666016 0.157227)"/>
</clipPath>
</defs>
</svg>
