<svg width="130" height="22" viewBox="0 0 130 22" fill="none" xmlns="http://www.w3.org/2000/svg">
<g clip-path="url(#clip0_314_13119)">
<path d="M18.1401 0.965218C18.5905 0.48398 19.2023 0.213623 19.8394 0.213623C22.7055 0.213623 25.4065 0.213625 28.0665 0.21363C33.4163 0.213642 36.0953 7.12374 32.3124 11.1651L24.0723 19.9681C23.694 20.3723 23.0472 20.086 23.0472 19.5145V11.7611L23.9994 10.7437C24.756 9.93549 24.2202 8.55344 23.1502 8.55344H11.0371L18.1401 0.965218Z" fill="#F26CF9"/>
<path d="M15.9432 19.3493C15.4928 19.8306 14.881 20.1009 14.244 20.1009C11.3778 20.1009 8.67679 20.1009 6.01686 20.1009C0.666957 20.1009 -2.01201 13.1908 1.77092 9.14943L10.0111 0.346411C10.3893 -0.0577274 11.0362 0.2285 11.0362 0.800037L11.0362 8.55338L10.0839 9.57078C9.32733 10.3791 9.86315 11.7611 10.9331 11.7611L23.0463 11.761L15.9432 19.3493Z" fill="#F26CF9"/>
<path d="M81.8711 6.8772V16.8746H84.7301V6.8772H81.8711Z" fill="#1C2346"/>
<path d="M82.0713 5.21408C82.4092 5.56093 82.8221 5.73438 83.3109 5.73438C83.7993 5.73438 84.2097 5.56093 84.5413 5.21408C84.8792 4.86719 85.0482 4.44598 85.0482 3.95045C85.0482 3.44252 84.8792 3.01822 84.5413 2.67754C84.2097 2.33067 83.7993 2.15723 83.3109 2.15723C82.8221 2.15723 82.4092 2.33067 82.0713 2.67754C81.7334 3.01822 81.5645 3.44252 81.5645 3.95045C81.5645 4.44598 81.7334 4.86719 82.0713 5.21408Z" fill="#1C2346"/>
<path fill-rule="evenodd" clip-rule="evenodd" d="M86.3438 20.777V6.87721H89.0582V7.87136H89.0937C89.2646 7.69836 89.4487 7.54041 89.6463 7.39751C90.2856 6.93911 91.0213 6.70996 91.8539 6.70996C92.5838 6.70996 93.2805 6.90506 93.9441 7.29531C94.6136 7.68551 95.1565 8.26471 95.5728 9.03276C95.9886 9.80086 96.1906 10.7579 96.179 11.9038C96.1848 12.771 96.067 13.5267 95.826 14.1709C95.5845 14.8089 95.2587 15.3385 94.8488 15.7597C94.4388 16.1809 93.9802 16.4968 93.4733 16.7074C92.9669 16.918 92.4542 17.0233 91.9352 17.0233C91.1148 17.0233 90.3791 16.7879 89.7276 16.3172C89.5636 16.1971 89.4082 16.067 89.2617 15.9269H89.2028V20.777H86.3438ZM91.2657 14.5704C91.6879 14.5642 92.0589 14.4496 92.3788 14.2266C92.6982 14.0036 92.9489 13.6877 93.1296 13.2789C93.3107 12.8701 93.3983 12.3931 93.392 11.848C93.3983 11.2906 93.3078 10.8136 93.1208 10.4172C92.9397 10.0146 92.6836 9.70791 92.3515 9.49731C92.0199 9.28056 91.6397 9.17521 91.2117 9.18141C90.8076 9.17521 90.4453 9.27746 90.1259 9.48806C89.806 9.69866 89.5529 10.0053 89.3659 10.4079C89.1789 10.8043 89.0854 11.2844 89.0854 11.848C89.0854 12.3931 89.1789 12.8701 89.3659 13.2789C89.5587 13.6877 89.8182 14.0036 90.1439 14.2266C90.4697 14.4496 90.8436 14.5642 91.2657 14.5704Z" fill="#1C2346"/>
<path d="M98.9324 16.7167C99.4631 16.9211 100.018 17.0233 100.597 17.0233C101.261 17.0233 101.867 16.8901 102.416 16.6238C102.971 16.3574 103.414 15.9858 103.746 15.5088C104.084 15.0257 104.252 14.4713 104.252 13.8457C104.252 13.3501 104.15 12.932 103.945 12.5914C103.746 12.2507 103.492 11.9719 103.185 11.7551C102.883 11.5383 102.572 11.368 102.253 11.2441C101.933 11.114 101.653 11.0149 101.411 10.9468C101.098 10.8539 100.796 10.7579 100.506 10.6588C100.217 10.5597 99.9787 10.442 99.7917 10.3057C99.6048 10.1694 99.5113 9.98977 99.5113 9.76677C99.5113 9.54382 99.6048 9.35797 99.7917 9.20932C99.9787 9.06067 100.214 8.98632 100.498 8.98632C100.835 8.98632 101.113 9.07922 101.33 9.26507C101.553 9.45087 101.722 9.64292 101.837 9.84112L104.035 8.86552C103.758 8.22132 103.287 7.70412 102.624 7.31387C101.966 6.92367 101.224 6.72852 100.398 6.72852C99.7348 6.72852 99.1432 6.85552 98.6247 7.10947C98.112 7.36342 97.7049 7.71652 97.403 8.16867C97.1075 8.61467 96.96 9.13187 96.96 9.72032C96.96 10.2778 97.0866 10.7517 97.3398 11.1419C97.5934 11.5321 97.9221 11.8542 98.3262 12.1082C98.7362 12.356 99.1705 12.5511 99.6291 12.6936C99.8283 12.7493 100.045 12.8112 100.281 12.8794C100.522 12.9475 100.751 13.028 100.968 13.121C101.185 13.2139 101.363 13.3254 101.502 13.4554C101.64 13.5855 101.71 13.7404 101.71 13.92C101.71 14.0625 101.662 14.1956 101.565 14.3195C101.475 14.4434 101.348 14.5456 101.185 14.6261C101.022 14.7005 100.832 14.7376 100.615 14.7376C100.205 14.7376 99.8492 14.6076 99.5473 14.3474C99.2459 14.0872 99.02 13.8116 98.8691 13.5205L96.625 14.5332C96.83 15.035 97.1348 15.4747 97.5389 15.8526C97.943 16.2242 98.4075 16.5123 98.9324 16.7167Z" fill="#1C2346"/>
<path d="M115.873 16.8746V6.87722H118.596V8.15012H118.646C118.859 7.84597 119.099 7.58892 119.366 7.37892C119.908 6.94532 120.551 6.72852 121.293 6.72852C121.908 6.72852 122.43 6.88337 122.858 7.19312C123.188 7.42397 123.457 7.73367 123.666 8.12222H123.717C124.025 7.71872 124.399 7.40277 124.839 7.17452C125.412 6.87722 126.036 6.72852 126.712 6.72852C127.357 6.72852 127.889 6.84622 128.304 7.08162C128.721 7.31077 129.046 7.61432 129.282 7.99217C129.517 8.36382 129.683 8.77262 129.779 9.21862C129.876 9.65837 129.924 10.0858 129.924 10.5008V16.8746H127.047V10.8632C127.047 10.3181 126.935 9.89997 126.712 9.60882C126.495 9.31152 126.175 9.16287 125.753 9.16287C125.476 9.16287 125.228 9.22792 125.011 9.35797C124.8 9.48187 124.631 9.67077 124.505 9.92472C124.384 10.1787 124.324 10.4915 124.324 10.8632V16.8746H121.465V10.8632C121.465 10.3181 121.353 9.89997 121.13 9.60882C120.907 9.31152 120.584 9.16287 120.162 9.16287C119.752 9.16287 119.411 9.30842 119.139 9.59957C118.868 9.88447 118.732 10.3119 118.732 10.8818V16.8746H115.873Z" fill="#1C2346"/>
<path d="M108.877 17.0232C108.207 17.0232 107.598 16.8777 107.05 16.5866C106.5 16.2892 106.063 15.8556 105.737 15.2858C105.418 14.7097 105.258 14.0005 105.258 13.1581V6.8772H108.117V12.7678C108.117 13.3439 108.262 13.7837 108.551 14.0872C108.847 14.3845 109.206 14.5332 109.628 14.5332C109.942 14.5332 110.216 14.4619 110.451 14.3195C110.692 14.177 110.879 13.9757 111.012 13.7155C111.151 13.4492 111.22 13.1333 111.22 12.7678V6.8772H114.079V13.3718C114.079 13.731 114.131 13.9912 114.233 14.1522C114.336 14.3133 114.544 14.4527 114.857 14.5703L113.844 17.0232C113.126 16.8312 112.602 16.5804 112.27 16.2707C112.103 16.1146 111.976 15.935 111.89 15.7318H111.818C111.565 15.9926 111.285 16.2249 110.976 16.4286C110.367 16.825 109.667 17.0232 108.877 17.0232Z" fill="#1C2346"/>
<path fill-rule="evenodd" clip-rule="evenodd" d="M75.6813 17.0233C74.746 17.0233 73.8925 16.8034 73.1207 16.3636C72.3544 15.9238 71.7424 15.3168 71.2837 14.5425C70.8314 13.7682 70.6055 12.8763 70.6055 11.8666C70.6055 10.857 70.8314 9.96502 71.2837 9.19072C71.7424 8.41647 72.3544 7.81252 73.1207 7.37892C73.8925 6.94532 74.746 6.72852 75.6813 6.72852C76.6342 6.72852 77.4935 6.94532 78.2599 7.37892C79.0258 7.81252 79.6319 8.41647 80.0784 9.19072C80.5307 9.96502 80.7567 10.857 80.7567 11.8666C80.7567 12.8763 80.5307 13.7682 80.0784 14.5425C79.6319 15.3168 79.0228 15.9238 78.2506 16.3636C77.4848 16.8034 76.6283 17.0233 75.6813 17.0233ZM75.6813 14.5146C76.1273 14.5146 76.5285 14.4032 76.8844 14.1802C77.2403 13.9572 77.5208 13.6475 77.7258 13.251C77.9307 12.8546 78.0335 12.3931 78.0335 11.8666C78.0335 11.3587 77.9342 10.9065 77.735 10.5101C77.5359 10.1137 77.2613 9.80397 76.9117 9.58097C76.5616 9.35177 76.1575 9.23717 75.6993 9.23717C75.247 9.23717 74.8395 9.34867 74.4777 9.57167C74.1218 9.78847 73.8413 10.0951 73.6364 10.4915C73.4314 10.8879 73.3287 11.3463 73.3287 11.8666C73.3287 12.3931 73.4314 12.8546 73.6364 13.251C73.8472 13.6475 74.131 13.9572 74.487 14.1802C74.8429 14.4032 75.2407 14.5146 75.6813 14.5146Z" fill="#1C2346"/>
<path fill-rule="evenodd" clip-rule="evenodd" d="M62.1421 20.619C62.8174 20.8234 63.5594 20.9256 64.3677 20.9256C65.1219 20.9256 65.8123 20.8265 66.4399 20.6283C67.067 20.4363 67.6099 20.1451 68.068 19.7549C68.5325 19.3647 68.8914 18.8815 69.145 18.3054C69.3982 17.7294 69.5248 17.0604 69.5248 16.2985V6.86789H66.9282V7.84344H66.8742C66.7013 7.67359 66.5144 7.51874 66.3128 7.37889C65.6857 6.93909 64.9529 6.71924 64.1145 6.71924C63.3905 6.71924 62.6937 6.90814 62.0243 7.28599C61.3548 7.65764 60.8061 8.21514 60.3776 8.95844C59.9555 9.69554 59.7441 10.6215 59.7441 11.7365C59.7441 12.5727 59.8678 13.3005 60.1152 13.92C60.3625 14.5394 60.6911 15.0566 61.1016 15.4716C61.5179 15.8804 61.979 16.187 62.4858 16.3914C62.9927 16.5897 63.502 16.6888 64.0147 16.6888C64.8414 16.6888 65.5771 16.4565 66.2227 15.9919C66.4267 15.843 66.6176 15.6788 66.7943 15.4995H66.8377V16.4658C66.8377 16.9427 66.6872 17.3268 66.3853 17.6179C66.0839 17.9152 65.7188 18.132 65.2908 18.2683C64.8623 18.4046 64.449 18.4727 64.0512 18.4727C63.5867 18.4727 63.128 18.3953 62.6757 18.2404C62.2292 18.0917 61.8373 17.9121 61.4999 17.7015L60.5587 20.0058C60.9448 20.2164 61.4726 20.4208 62.1421 20.619ZM65.8697 13.9664C65.5381 14.1894 65.155 14.3009 64.7207 14.3009C64.2922 14.3009 63.9153 14.1894 63.5896 13.9664C63.2639 13.7372 63.0078 13.4244 62.8208 13.028C62.6338 12.6254 62.5399 12.1639 62.5399 11.6436C62.5399 11.1233 62.6338 10.6711 62.8208 10.2871C63.0136 9.90304 63.279 9.60879 63.6169 9.40439C63.9548 9.19379 64.3375 9.08849 64.7659 9.08849C65.1939 9.08849 65.5713 9.19069 65.897 9.39509C66.2227 9.59954 66.4788 9.89374 66.6658 10.2778C66.8528 10.6556 66.9462 11.1109 66.9462 11.6436C66.9462 12.1701 66.8498 12.6347 66.657 13.0373C66.4637 13.4337 66.2013 13.7434 65.8697 13.9664Z" fill="#1C2346"/>
<path fill-rule="evenodd" clip-rule="evenodd" d="M53.943 17.0233C53.0082 17.0233 52.1547 16.8034 51.3825 16.3636C50.6166 15.9238 50.0041 15.3168 49.5459 14.5425C49.0936 13.7682 48.8672 12.8763 48.8672 11.8666C48.8672 10.857 49.0936 9.96502 49.5459 9.19072C50.0041 8.41647 50.6166 7.81252 51.3825 7.37892C52.1547 6.94532 53.0082 6.72852 53.943 6.72852C54.8959 6.72852 55.7557 6.94532 56.5216 7.37892C57.2875 7.81252 57.8937 8.41647 58.3401 9.19072C58.7925 9.96502 59.0189 10.857 59.0189 11.8666C59.0189 12.8763 58.7925 13.7682 58.3401 14.5425C57.8937 15.3168 57.2846 15.9238 56.5124 16.3636C55.7465 16.8034 54.89 17.0233 53.943 17.0233ZM53.943 14.5146C54.3895 14.5146 54.7902 14.4032 55.1461 14.1802C55.5021 13.9572 55.7825 13.6475 55.988 13.251C56.193 12.8546 56.2952 12.3931 56.2952 11.8666C56.2952 11.3587 56.1959 10.9065 55.9967 10.5101C55.7976 10.1137 55.5235 9.80397 55.1734 9.58097C54.8238 9.35177 54.4192 9.23717 53.961 9.23717C53.5087 9.23717 53.1017 9.34867 52.7394 9.57167C52.3835 9.78847 52.1031 10.0951 51.8981 10.4915C51.6931 10.8879 51.5904 11.3463 51.5904 11.8666C51.5904 12.3931 51.6931 12.8546 51.8981 13.251C52.1094 13.6475 52.3928 13.9572 52.7487 14.1802C53.1046 14.4032 53.5024 14.5146 53.943 14.5146Z" fill="#1C2346"/>
<path d="M41.1367 3.17932V16.8747H48.9089V14.1616H44.1044V3.17932H41.1367Z" fill="#1C2346"/>
</g>
<defs>
<clipPath id="clip0_314_13119">
<rect width="130" height="21" fill="white" transform="translate(0 0.157227)"/>
</clipPath>
</defs>
</svg>
