<svg width="130" height="23" viewBox="0 0 130 23" fill="none" xmlns="http://www.w3.org/2000/svg">
<g clip-path="url(#clip0_314_13061)">
<path d="M28.6777 2.56592V17.6618H37.908V14.9262H31.7218V2.56592H28.6777Z" fill="#1C2346"/>
<path d="M75.1641 6.59827V17.6618H78.1097V6.59827H75.1641Z" fill="#1C2346"/>
<path d="M75.1641 2.56592V5.60534H78.1097V2.56592H75.1641Z" fill="#1C2346"/>
<path fill-rule="evenodd" clip-rule="evenodd" d="M79.6777 21.7143V6.59826H82.4272V7.746C82.745 7.36028 83.1373 7.05201 83.6053 6.82117C84.2205 6.51048 84.9209 6.3551 85.7066 6.3551C86.728 6.3551 87.6507 6.61179 88.4759 7.1251C89.3005 7.63842 89.9551 8.33411 90.4396 9.21219C90.9242 10.0767 91.1662 11.0494 91.1662 12.13C91.1662 13.1972 90.9242 14.1698 90.4396 15.0479C89.9684 15.9259 89.3202 16.6216 88.4956 17.1349C87.6704 17.6483 86.7344 17.9049 85.6869 17.9049C84.9539 17.9049 84.2732 17.7699 83.6448 17.4997C83.2578 17.3213 82.9171 17.0921 82.6234 16.8121V21.7143H79.6777ZM85.3335 15.1695C85.8836 15.1695 86.3676 15.0411 86.7866 14.7845C87.2056 14.5278 87.5329 14.1698 87.7685 13.7105C88.0046 13.2512 88.1224 12.7244 88.1224 12.13C88.1224 11.5357 88.0046 11.0156 87.7685 10.5698C87.5329 10.1105 87.2056 9.75251 86.7866 9.49582C86.3676 9.22566 85.8836 9.09058 85.3335 9.09058C84.81 9.09058 84.3383 9.2189 83.9198 9.47558C83.5136 9.73227 83.1927 10.0902 82.9571 10.5495C82.7348 11.0088 82.6234 11.5357 82.6234 12.13C82.6234 12.7244 82.7348 13.2512 82.9571 13.7105C83.1927 14.1698 83.5136 14.5278 83.9198 14.7845C84.3383 15.0411 84.81 15.1695 85.3335 15.1695Z" fill="#1C2346"/>
<path d="M93.42 17.0539C94.2974 17.6212 95.3251 17.9049 96.5032 17.9049C97.3411 17.9049 98.0677 17.7631 98.6834 17.4794C99.2985 17.1822 99.7767 16.7769 100.117 16.2636C100.47 15.7503 100.647 15.1492 100.647 14.4602C100.647 13.6632 100.412 12.9946 99.9403 12.4542C99.4686 11.9004 98.7879 11.4884 97.8977 11.2182L96.1892 10.6914C95.9275 10.6103 95.7047 10.5225 95.5213 10.428C95.3512 10.3334 95.227 10.2253 95.1481 10.1037C95.0698 9.98213 95.0303 9.84705 95.0303 9.6985C95.0303 9.41481 95.1353 9.19189 95.3448 9.02981C95.5671 8.86772 95.8683 8.78665 96.2478 8.78665C96.7718 8.78665 97.2367 8.9285 97.6423 9.21219C98.0613 9.48235 98.3492 9.84705 98.5064 10.3064L100.687 9.25267C100.359 8.33411 99.7959 7.62489 98.9974 7.1251C98.2122 6.61179 97.2953 6.3551 96.2478 6.3551C95.4493 6.3551 94.7425 6.50371 94.1273 6.80088C93.5117 7.08457 93.034 7.48304 92.6934 7.99641C92.3533 8.50973 92.1827 9.11088 92.1827 9.79981C92.1827 10.5833 92.4184 11.2654 92.8901 11.8464C93.3613 12.4137 94.0356 12.8257 94.9125 13.0824L96.7388 13.6092C96.9749 13.6768 97.1711 13.7578 97.3283 13.8524C97.4851 13.9469 97.6029 14.055 97.6818 14.1765C97.7601 14.2846 97.7996 14.4197 97.7996 14.5818C97.7996 14.8925 97.6882 15.1357 97.4659 15.3113C97.2431 15.4869 96.9222 15.5747 96.5032 15.5747C95.9275 15.5747 95.4035 15.4058 94.9322 15.0681C94.461 14.7304 94.0879 14.2644 93.8128 13.67L91.6523 14.7237C91.9668 15.6963 92.5559 16.473 93.42 17.0539Z" fill="#1C2346"/>
<path d="M112.986 6.59826H115.736V7.93476C115.937 7.5304 116.218 7.20645 116.58 6.96296C117.183 6.55772 117.903 6.3551 118.741 6.3551C119.631 6.3551 120.41 6.59149 121.078 7.06433C121.475 7.33223 121.785 7.6553 122.008 8.03354C122.292 7.60553 122.63 7.26222 123.022 7.0035C123.676 6.57125 124.442 6.3551 125.319 6.3551C126.092 6.3551 126.773 6.53072 127.362 6.88195C127.964 7.23318 128.435 7.7262 128.776 8.36112C129.116 8.98251 129.286 9.71197 129.286 10.5495V17.6618H126.34V11.1979C126.34 10.7657 126.262 10.3942 126.105 10.0834C125.961 9.77275 125.751 9.52959 125.476 9.35403C125.201 9.17842 124.868 9.09058 124.475 9.09058C124.095 9.09058 123.762 9.17842 123.473 9.35403C123.199 9.52959 122.982 9.77275 122.826 10.0834C122.681 10.3942 122.609 10.7657 122.609 11.1979V17.6618H119.663V11.1979C119.663 10.7657 119.585 10.3942 119.428 10.0834C119.284 9.77275 119.074 9.52959 118.799 9.35403C118.524 9.17842 118.191 9.09058 117.798 9.09058C117.418 9.09058 117.084 9.17842 116.796 9.35403C116.521 9.52959 116.305 9.77275 116.148 10.0834C116.004 10.3942 115.932 10.7657 115.932 11.1979V17.6618H112.986V6.59826Z" fill="#1C2346"/>
<path d="M105.669 17.9049C104.805 17.9049 104.065 17.7158 103.449 17.3376C102.847 16.9458 102.389 16.4055 102.075 15.7166C101.761 15.0276 101.604 14.2239 101.604 13.3052V6.59827H104.549V13.0621C104.549 13.4809 104.628 13.8524 104.785 14.1766C104.955 14.4872 105.191 14.7304 105.492 14.906C105.793 15.0816 106.133 15.1695 106.513 15.1695C106.906 15.1695 107.246 15.0816 107.534 14.906C107.835 14.7304 108.065 14.4872 108.222 14.1766C108.392 13.8524 108.477 13.4809 108.477 13.0621V6.59827H111.423V17.6618H108.673V16.3154C108.423 16.8012 108.07 17.1757 107.613 17.4389C107.063 17.7496 106.415 17.9049 105.669 17.9049Z" fill="#1C2346"/>
<path fill-rule="evenodd" clip-rule="evenodd" d="M68.2837 17.9049C67.2229 17.9049 66.2543 17.655 65.3769 17.1552C64.5128 16.6554 63.8193 15.9732 63.2953 15.1087C62.7846 14.2306 62.5293 13.2377 62.5293 12.13C62.5293 11.0088 62.7846 10.0159 63.2953 9.15136C63.8193 8.28681 64.5128 7.60465 65.3769 7.10481C66.2543 6.60502 67.2229 6.3551 68.2837 6.3551C69.3439 6.3551 70.3066 6.60502 71.1707 7.10481C72.0348 7.60465 72.7219 8.28681 73.2326 9.15136C73.756 10.0159 74.0183 11.0088 74.0183 12.13C74.0183 13.2377 73.756 14.2306 73.2326 15.1087C72.7219 15.9732 72.0348 16.6554 71.1707 17.1552C70.3066 17.655 69.3439 17.9049 68.2837 17.9049ZM68.2837 15.1695C68.8204 15.1695 69.2853 15.0411 69.6781 14.7845C70.0838 14.5278 70.3978 14.1698 70.6206 13.7105C70.8562 13.2512 70.974 12.7244 70.974 12.13C70.974 11.5357 70.8562 11.0156 70.6206 10.5698C70.3978 10.1105 70.0838 9.75251 69.6781 9.49582C69.2853 9.22566 68.8204 9.09058 68.2837 9.09058C67.7469 9.09058 67.2756 9.22566 66.8695 9.49582C66.4638 9.75251 66.1429 10.1105 65.9073 10.5698C65.6845 11.0156 65.5736 11.5357 65.5736 12.13C65.5736 12.7244 65.6845 13.2512 65.9073 13.7105C66.1429 14.1698 66.4638 14.5278 66.8695 14.7845C67.2756 15.0411 67.7469 15.1695 68.2837 15.1695Z" fill="#1C2346"/>
<path fill-rule="evenodd" clip-rule="evenodd" d="M53.7822 21.6941C54.489 21.9777 55.255 22.1196 56.0802 22.1196C57.1143 22.1196 58.0242 21.9035 58.81 21.4712C59.6085 21.0389 60.237 20.4378 60.6949 19.6678C61.1533 18.9113 61.3825 18.0468 61.3825 17.0742V6.59826H58.633V7.7603C58.3094 7.36864 57.9427 7.06235 57.5333 6.84141C56.957 6.51719 56.2827 6.3551 55.5103 6.3551C54.5284 6.3551 53.6516 6.58473 52.8789 7.04403C52.1064 7.50334 51.4976 8.13826 51.0525 8.94874C50.6073 9.74574 50.3848 10.6644 50.3848 11.7045C50.3848 12.7447 50.6073 13.6768 51.0525 14.5008C51.4976 15.3113 52.1129 15.9529 52.8985 16.4258C53.6841 16.885 54.5743 17.1147 55.5695 17.1147C56.3419 17.1147 57.0162 16.9661 57.5919 16.6689C57.9043 16.5005 58.1857 16.2864 58.4368 16.0267V17.0742C58.4368 17.5469 58.3382 17.9589 58.142 18.3102C57.9587 18.6614 57.6905 18.9248 57.3366 19.1004C56.9832 19.2896 56.5642 19.3841 56.0802 19.3841C55.4645 19.3841 54.9346 19.2355 54.489 18.9383C54.0439 18.6412 53.7496 18.2359 53.6055 17.7226L50.8757 18.7154C51.0983 19.4044 51.4583 19.9987 51.9558 20.4986C52.4665 21.0119 53.0753 21.4104 53.7822 21.6941ZM57.2779 14.0348C56.9112 14.2508 56.4794 14.3589 55.9816 14.3589C55.4842 14.3589 55.0391 14.2508 54.6462 14.0348C54.2667 13.8051 53.9655 13.4944 53.7427 13.1026C53.5335 12.7109 53.4287 12.2584 53.4287 11.745C53.4287 11.2182 53.5335 10.7589 53.7427 10.3671C53.9655 9.96189 54.2667 9.6512 54.6462 9.43505C55.0391 9.20542 55.4842 9.09058 55.9816 9.09058C56.4661 9.09058 56.8915 9.20542 57.2582 9.43505C57.625 9.6512 57.9128 9.96189 58.1223 10.3671C58.3318 10.7589 58.4368 11.2182 58.4368 11.745C58.4368 12.2718 58.3318 12.7311 58.1223 13.1229C57.9261 13.5147 57.6447 13.8186 57.2779 14.0348Z" fill="#1C2346"/>
<path fill-rule="evenodd" clip-rule="evenodd" d="M43.9358 17.9049C42.8753 17.9049 41.9064 17.655 41.0292 17.1552C40.1651 16.6554 39.4713 15.9732 38.9475 15.1087C38.4369 14.2306 38.1816 13.2377 38.1816 12.13C38.1816 11.0088 38.4369 10.0159 38.9475 9.15136C39.4713 8.28681 40.1651 7.60465 41.0292 7.10481C41.9064 6.60502 42.8753 6.3551 43.9358 6.3551C44.9962 6.3551 45.9585 6.60502 46.8227 7.10481C47.6868 7.60465 48.3741 8.28681 48.8847 9.15136C49.4084 10.0159 49.6703 11.0088 49.6703 12.13C49.6703 13.2377 49.4084 14.2306 48.8847 15.1087C48.3741 15.9732 47.6868 16.6554 46.8227 17.1552C45.9585 17.655 44.9962 17.9049 43.9358 17.9049ZM43.9358 15.1695C44.4726 15.1695 44.9373 15.0411 45.3301 14.7845C45.736 14.5278 46.0502 14.1698 46.2728 13.7105C46.5084 13.2512 46.6263 12.7244 46.6263 12.13C46.6263 11.5357 46.5084 11.0156 46.2728 10.5698C46.0502 10.1105 45.736 9.75251 45.3301 9.49582C44.9373 9.22566 44.4726 9.09058 43.9358 9.09058C43.399 9.09058 42.9277 9.22566 42.5218 9.49582C42.1159 9.75251 41.7951 10.1105 41.5595 10.5698C41.3369 11.0156 41.2256 11.5357 41.2256 12.13C41.2256 12.7244 41.3369 13.2512 41.5595 13.7105C41.7951 14.1698 42.1159 14.5278 42.5218 14.7845C42.9277 15.0411 43.399 15.1695 43.9358 15.1695Z" fill="#1C2346"/>
<path d="M19.3827 7.52824C18.1903 5.40969 15.2095 5.40969 14.0171 7.52824L12.2461 10.6749H15.7951C17.9015 10.6749 19.4922 12.202 19.8938 14.0599L20.3295 13.2857C21.0391 12.0249 21.0391 10.4715 20.3295 9.21058L19.3827 7.52824Z" fill="#5562A2"/>
<path d="M13.2319 20.2822C14.5827 18.9939 15.0657 16.8306 14.0182 14.9693L12.2324 11.7965L15.7954 11.7966C18.1801 11.7966 19.6705 14.4447 18.4782 16.5632L17.3145 18.6308C16.7395 19.6524 15.6769 20.2819 14.527 20.282L13.2319 20.2822Z" fill="#D3DAF9"/>
<path d="M4.61719 17.4797C6.38515 18.0484 8.46626 17.3982 9.51825 15.529L11.2946 12.3728L13.0716 15.5301C14.2642 17.649 12.7731 20.2975 10.388 20.2969L8.06023 20.2963C6.91037 20.2959 5.84799 19.6665 5.27308 18.645L4.61719 17.4797Z" fill="#D3DAF9"/>
<path d="M2.69449 8.43652L2.25878 9.2107C1.54916 10.4715 1.54916 12.0249 2.25878 13.2858L3.20564 14.9682C4.39799 17.0867 7.37884 17.0867 8.57119 14.9682L10.3476 11.8119H6.79109C4.68835 11.8119 3.09952 10.29 2.69449 8.43652Z" fill="#F26CF9"/>
<path d="M4.08276 5.97121C3.99897 6.12584 3.9293 6.28311 3.87305 6.44184C3.92946 6.28267 3.99936 6.12499 4.08347 5.96997L4.08276 5.97121Z" fill="#F26CF9"/>
<path d="M9.35823 2.20288C8.00655 3.49107 7.52307 5.65505 8.5709 7.51677L10.3571 10.6905H6.79187C4.40719 10.6905 2.91675 8.04235 4.1091 5.92376L5.27373 3.85446C5.84863 2.83295 6.91101 2.20355 8.06087 2.20324L9.35823 2.20288Z" fill="#F26CF9"/>
<path d="M11.2975 10.1189L9.51731 6.95594C8.32486 4.83723 9.81561 2.18888 12.2005 2.18921L14.5276 2.18953C15.6776 2.18968 16.7402 2.8191 17.3152 3.84075L17.9782 5.01878C16.2089 4.44665 14.1244 5.09624 13.0712 6.96754L11.2975 10.1189Z" fill="#5562A2"/>
<path d="M8.06014 2.20311L9.35734 2.20288C8.00577 3.49109 7.52228 5.65499 8.57006 7.51672L10.3477 10.675H10.3461V10.6875H9.15301L7.66893 8.05055C6.55356 6.06876 6.83224 3.81629 7.97293 2.20434C8.00193 2.20353 8.03098 2.20312 8.06014 2.20311Z" fill="black" fill-opacity="0.22"/>
<path d="M2.69472 8.43652C2.89723 9.36327 3.39572 10.2071 4.10639 10.8193C4.78092 11.4003 5.64663 11.7726 6.63192 11.809C6.68474 11.8109 6.73789 11.8119 6.79135 11.8119H10.3391L9.73831 12.8794H6.79135C4.5715 12.8794 2.81563 11.519 2.01953 9.71274C2.08753 9.54131 2.16737 9.3735 2.25907 9.21059L2.69472 8.43652Z" fill="black" fill-opacity="0.22"/>
<path d="M4.61719 17.4796C6.31175 18.0247 8.29403 17.45 9.38205 15.7554L9.38237 15.7549C9.42939 15.6817 9.47475 15.6063 9.5183 15.5289L11.2946 12.3728C11.4559 12.6595 11.6171 12.9462 11.7782 13.233C11.8172 13.3024 11.8561 13.3717 11.895 13.441L10.4195 16.0627C9.30044 18.0511 7.24977 18.9289 5.31276 18.7136C5.29929 18.6909 5.28606 18.668 5.27307 18.645L4.61719 17.4796Z" fill="black" fill-opacity="0.22"/>
<path d="M14.6161 20.2807C14.5865 20.2816 14.5567 20.282 14.5269 20.282L13.2318 20.2822C14.5826 18.9939 15.0656 16.8305 14.0181 14.9693L12.2324 11.7966L13.434 11.7965L14.9194 14.4356C16.0345 16.4169 15.7561 18.6689 14.6161 20.2807Z" fill="black" fill-opacity="0.22"/>
<path d="M20.57 12.7813C20.5018 12.9535 20.4217 13.1222 20.3295 13.2858L19.8938 14.06C19.4922 12.2022 17.9015 10.675 15.7951 10.675H12.2461L12.8469 9.60754H15.7951C18.0178 9.60754 19.7754 10.9714 20.57 12.7813Z" fill="black" fill-opacity="0.22"/>
<path d="M17.2828 3.78351C17.294 3.80244 17.3049 3.82151 17.3158 3.84072L17.9788 5.01876C16.2095 4.44663 14.1249 5.09622 13.0717 6.96753L11.2981 10.119L10.6973 9.05148L12.1705 6.43381C13.2906 4.44352 15.3442 3.56588 17.2828 3.78351Z" fill="black" fill-opacity="0.22"/>
</g>
<defs>
<clipPath id="clip0_314_13061">
<rect width="129" height="22" fill="white" transform="translate(0.333984 0.657227)"/>
</clipPath>
</defs>
</svg>
