<svg width="110" height="31" viewBox="0 0 110 31" fill="none" xmlns="http://www.w3.org/2000/svg">
<g clip-path="url(#clip0_310_11913)">
<path fill-rule="evenodd" clip-rule="evenodd" d="M0.228516 3.9595L2.15156 3.1049C9.3005 -0.0720768 17.4213 -0.0720768 24.5702 3.1049L26.4933 3.9595V17.1655C26.4933 24.5701 20.6137 30.5727 13.3609 30.5727C6.10808 30.5727 0.228516 24.5701 0.228516 17.1655V3.9595ZM4.38927 6.75234V12.5316C4.83299 12.4219 5.26872 12.2771 5.69242 12.0979C6.76514 11.6443 7.73982 10.9794 8.56084 10.1412C9.38187 9.30298 10.0331 8.30791 10.4775 7.21275C10.7552 6.52833 10.9487 5.81316 11.0547 5.08365C8.78516 5.30796 6.53963 5.86421 4.38927 6.75234ZM4.39002 17.2864C4.83348 17.3961 5.26896 17.5408 5.69242 17.7199C6.76514 18.1735 7.73982 18.8384 8.56084 19.6766C9.38187 20.5148 10.0331 21.5099 10.4775 22.605C10.92 23.6957 11.1486 24.8643 11.1505 26.0447C7.30112 25.049 4.44357 21.5129 4.39002 17.2864ZM13.2309 18.8569C12.7333 18.0705 12.1545 17.3381 11.5029 16.673C10.8514 16.0078 10.1341 15.4168 9.36379 14.9089C10.1341 14.4009 10.8514 13.81 11.5029 13.1448C12.1545 12.4797 12.7333 11.7473 13.2309 10.9609C13.7284 11.7473 14.3073 12.4797 14.9588 13.1448C15.6103 13.81 16.3277 14.4009 17.098 14.9089C16.3277 15.4168 15.6103 16.0078 14.9588 16.673C14.3073 17.3381 13.7284 18.0705 13.2309 18.8569ZM15.3113 26.1078C19.3098 25.2028 22.3047 21.5741 22.3323 17.2262C21.7988 17.3408 21.2755 17.5059 20.7693 17.7199C19.6966 18.1735 18.7219 18.8384 17.9009 19.6766C17.0799 20.5148 16.4286 21.5099 15.9843 22.605C15.5399 23.7002 15.3113 24.874 15.3113 26.0593V26.1078ZM20.7693 12.0979C21.2755 12.312 21.7989 12.477 22.3325 12.5916V6.75234C20.099 5.82983 17.7627 5.26541 15.4035 5.0591C15.5088 5.79712 15.7035 6.52065 15.9843 7.21275C16.4286 8.30791 17.0799 9.30298 17.9009 10.1412C18.7219 10.9794 19.6966 11.6443 20.7693 12.0979Z" fill="#37437D"/>
<path fill-rule="evenodd" clip-rule="evenodd" d="M57.7367 27.9381C57.1126 27.9381 56.5509 27.7851 56.0516 27.4793C55.5523 27.1649 55.1571 26.7401 54.8658 26.2049C54.5829 25.6611 54.4414 25.0495 54.4414 24.3698C54.4414 23.6817 54.5829 23.07 54.8658 22.5348C55.1571 21.9995 55.5482 21.579 56.0391 21.2732C56.5384 20.9588 57.1043 20.8017 57.7367 20.8017C58.3109 20.8017 58.8227 20.9291 59.272 21.184C59.64 21.3926 59.9437 21.661 60.1833 21.9892V18.1383H61.1194V27.7851H60.1833V26.672C59.9591 27.0338 59.6595 27.3243 59.2845 27.543C58.8268 27.8064 58.3109 27.9381 57.7367 27.9381ZM57.7867 26.9822C58.236 26.9822 58.6396 26.8675 58.9974 26.6381C59.3636 26.4087 59.6507 26.0987 59.8587 25.7079C60.0751 25.3086 60.1833 24.8626 60.1833 24.3698C60.1833 23.8771 60.0751 23.4353 59.8587 23.0445C59.6507 22.6452 59.3636 22.3309 58.9974 22.1015C58.6396 21.8721 58.236 21.7574 57.7867 21.7574C57.3456 21.7574 56.9462 21.8721 56.5884 22.1015C56.2305 22.3309 55.9476 22.641 55.7396 23.0318C55.5398 23.4226 55.44 23.8686 55.44 24.3698C55.44 24.8626 55.5398 25.3086 55.7396 25.7079C55.9476 26.0987 56.2264 26.4087 56.5759 26.6381C56.9337 26.8675 57.3373 26.9822 57.7867 26.9822Z" fill="#C3C3C4"/>
<path fill-rule="evenodd" clip-rule="evenodd" d="M64.0153 27.4793C64.5229 27.7851 65.0887 27.938 65.7129 27.938C66.1705 27.938 66.5866 27.8616 66.9611 27.7086C67.3439 27.5472 67.6726 27.3391 67.9472 27.0841C68.2218 26.8208 68.4257 26.5361 68.5588 26.2303L67.76 25.797C67.5519 26.1538 67.2815 26.4512 66.9486 26.6891C66.6157 26.9269 66.2038 27.0459 65.7129 27.0459C65.2885 27.0459 64.889 26.9354 64.5146 26.7146C64.1484 26.4937 63.8572 26.1836 63.6408 25.7843C63.4728 25.4548 63.3862 25.081 63.381 24.6629H68.6462C68.6628 24.5524 68.6753 24.4462 68.6836 24.3443C68.692 24.2338 68.6961 24.1361 68.6961 24.0512C68.6961 23.6434 68.6254 23.2484 68.4839 22.8661C68.3425 22.4753 68.1386 22.1269 67.8723 21.8211C67.606 21.5068 67.2815 21.2604 66.8987 21.082C66.5242 20.8951 66.0957 20.8016 65.613 20.8016C65.0055 20.8016 64.4563 20.9546 63.9653 21.2604C63.4827 21.5662 63.0999 21.9868 62.817 22.522C62.534 23.0487 62.3926 23.6561 62.3926 24.3443C62.3926 25.0324 62.5382 25.6484 62.8295 26.1921C63.1207 26.7358 63.516 27.1648 64.0153 27.4793ZM63.3958 23.7708C63.4268 23.4696 63.5043 23.1977 63.6283 22.9553C63.828 22.556 64.1026 22.2459 64.4522 22.025C64.81 21.8041 65.1969 21.6937 65.613 21.6937C66.0291 21.6937 66.4035 21.8041 66.7364 22.025C67.0693 22.2374 67.3231 22.5305 67.4978 22.9043C67.6294 23.1668 67.6942 23.4557 67.6926 23.7708H63.3958Z" fill="#C3C3C4"/>
<path d="M69.9727 20.9546H70.9088V21.7866C71.0794 21.5178 71.2999 21.2999 71.5704 21.133C71.9365 20.9121 72.336 20.8016 72.7687 20.8016C73.2846 20.8016 73.7506 20.9503 74.1667 21.2477C74.4884 21.4775 74.738 21.7607 74.9154 22.0971C75.0867 21.727 75.3322 21.4354 75.6521 21.2222C76.0682 20.9418 76.5258 20.8016 77.0251 20.8016C77.4745 20.8016 77.8864 20.9121 78.2609 21.133C78.6437 21.3538 78.9474 21.6597 79.1721 22.0505C79.4051 22.4328 79.5216 22.8661 79.5216 23.3503V27.7851H78.5854V23.7199C78.5854 23.3036 78.5105 22.951 78.3607 22.6622C78.2193 22.3733 78.0237 22.1524 77.7741 21.9995C77.5244 21.8381 77.2373 21.7574 76.9128 21.7574C76.5966 21.7574 76.3095 21.8381 76.0515 21.9995C75.7936 22.1524 75.5897 22.3776 75.4399 22.6749C75.2901 22.9638 75.2152 23.3121 75.2152 23.7199V27.7851H74.279V23.7199C74.279 23.3036 74.2041 22.951 74.0544 22.6622C73.9129 22.3733 73.7173 22.1524 73.4677 21.9995C73.218 21.8381 72.931 21.7574 72.6064 21.7574C72.2819 21.7574 71.9906 21.8381 71.7327 21.9995C71.483 22.1524 71.2833 22.3776 71.1335 22.6749C70.9837 22.9638 70.9088 23.3121 70.9088 23.7199V27.7851H69.9727V20.9546Z" fill="#C3C3C4"/>
<path d="M80.9514 30.5887C80.8182 30.5887 80.6809 30.5759 80.5395 30.5504C80.4063 30.5335 80.2732 30.4995 80.14 30.4485V29.5565C80.2232 29.565 80.3273 29.5777 80.4521 29.5947C80.5852 29.6202 80.7184 29.6329 80.8515 29.6329C81.2593 29.6329 81.5713 29.5437 81.7877 29.3653C82.004 29.1954 82.2162 28.8641 82.4243 28.3713L82.6661 27.7902L79.9902 20.9546H81.0013L83.1917 26.5929L85.3701 20.9546H86.4061L83.348 28.6517C83.2148 28.983 83.0442 29.2974 82.8362 29.5947C82.6365 29.892 82.3827 30.1299 82.0748 30.3083C81.7669 30.4952 81.3924 30.5887 80.9514 30.5887Z" fill="#C3C3C4"/>
<path fill-rule="evenodd" clip-rule="evenodd" d="M48.747 27.6959C49.0799 27.8573 49.4585 27.938 49.8832 27.938C50.2743 27.938 50.6321 27.8786 50.9564 27.7596C51.2893 27.6322 51.5764 27.4665 51.8177 27.2626C51.9849 27.1203 52.1222 26.9686 52.2296 26.8074V27.7851H53.166V23.0954C53.166 22.6452 53.0578 22.2501 52.8412 21.9103C52.6332 21.562 52.3378 21.2901 51.9552 21.0947C51.5805 20.8993 51.1481 20.8016 50.6568 20.8016C50.2826 20.8016 49.9204 20.8738 49.5709 21.0183C49.2214 21.1542 48.9093 21.3411 48.6347 21.579C48.3687 21.8169 48.1729 22.0802 48.048 22.3691L48.8971 22.8406C49.0466 22.5092 49.2755 22.2416 49.5836 22.0377C49.8913 21.8254 50.2491 21.7192 50.6568 21.7192C51.1228 21.7192 51.5017 21.8466 51.793 22.1015C52.084 22.3563 52.2296 22.6877 52.2296 23.0954V23.448L49.808 23.86C49.3171 23.945 48.9135 24.0894 48.5975 24.2933C48.281 24.4972 48.048 24.7478 47.8983 25.0452C47.7487 25.334 47.6738 25.6569 47.6738 26.0137C47.6738 26.3875 47.7693 26.7188 47.9607 27.0077C48.1523 27.2966 48.4142 27.526 48.747 27.6959ZM52.2296 24.3146V24.8285C52.2296 25.2448 52.1342 25.6229 51.9425 25.9627C51.7511 26.3025 51.4848 26.5744 51.1439 26.7783C50.8027 26.9737 50.4033 27.0714 49.9453 27.0714C49.5709 27.0714 49.263 26.9652 49.0217 26.7528C48.7889 26.5404 48.6724 26.2813 48.6724 25.9754C48.6724 25.6611 48.7764 25.3892 48.9842 25.1599C49.2006 24.9305 49.5501 24.7733 50.0327 24.6884L52.2296 24.3146Z" fill="#C3C3C4"/>
<path d="M44.0183 27.938C43.3609 27.938 42.7826 27.7809 42.2833 27.4665C41.784 27.1521 41.3929 26.7273 41.1099 26.1921C40.827 25.6484 40.6855 25.0367 40.6855 24.357C40.6855 23.6774 40.827 23.07 41.1099 22.5347C41.3929 21.9995 41.784 21.579 42.2833 21.2731C42.7826 20.9588 43.3609 20.8016 44.0183 20.8016C44.4344 20.8016 44.8255 20.8781 45.1916 21.031C45.5578 21.1839 45.8823 21.3921 46.1653 21.6554C46.4482 21.9103 46.6604 22.2077 46.8019 22.5475L45.9531 22.9935C45.7866 22.6282 45.5328 22.3308 45.1916 22.1015C44.8505 21.8721 44.4594 21.7574 44.0183 21.7574C43.5773 21.7574 43.1778 21.8721 42.82 22.1015C42.4705 22.3223 42.1917 22.6324 41.9837 23.0317C41.784 23.4225 41.6841 23.8685 41.6841 24.3698C41.6841 24.8625 41.784 25.3085 41.9837 25.7078C42.1917 26.0986 42.4705 26.4087 42.82 26.6381C43.1778 26.8675 43.5773 26.9822 44.0183 26.9822C44.4594 26.9822 44.8463 26.8675 45.1792 26.6381C45.5203 26.4087 45.7783 26.1029 45.9531 25.7206L46.8019 26.1921C46.6604 26.5234 46.4482 26.8208 46.1653 27.0841C45.8823 27.3476 45.5578 27.5557 45.1916 27.7086C44.8255 27.8616 44.4344 27.938 44.0183 27.938Z" fill="#C3C3C4"/>
<path fill-rule="evenodd" clip-rule="evenodd" d="M36.0065 18.2913L32.6113 27.7852H33.6598L34.4712 25.4658H38.6278L39.4266 27.7852H40.4752L37.08 18.2913H36.0065ZM38.2783 24.51H34.7957L36.5427 19.4879L38.2783 24.51Z" fill="#C3C3C4"/>
<path d="M33.457 2.91357V14.2453H40.4596V12.1919H35.7662V2.91357H33.457Z" fill="#1C2346"/>
<path d="M68.7246 14.2453H70.9595V5.94043H68.7246V14.2453Z" fill="#1C2346"/>
<path d="M68.7246 2.91357V5.19515H70.9595V2.91357H68.7246Z" fill="#1C2346"/>
<path fill-rule="evenodd" clip-rule="evenodd" d="M72.1465 17.2873V5.94033H74.2323V6.80189C74.4734 6.51235 74.7711 6.28093 75.1261 6.10764C75.5929 5.87441 76.1244 5.75781 76.7205 5.75781C77.4951 5.75781 78.1952 5.95048 78.8211 6.3358C79.4468 6.72113 79.9435 7.24334 80.3109 7.90247C80.6784 8.55145 80.8622 9.28154 80.8622 10.0928C80.8622 10.8938 80.6784 11.6239 80.3109 12.2831C79.9534 12.9422 79.4616 13.4644 78.8359 13.8497C78.2103 14.235 77.5001 14.4277 76.7054 14.4277C76.1491 14.4277 75.6327 14.3263 75.156 14.1235C74.8624 13.9896 74.6042 13.8175 74.3813 13.6074V17.2873H72.1465ZM76.4373 12.3743C76.8544 12.3743 77.2218 12.278 77.5399 12.0853C77.8576 11.8927 78.106 11.6239 78.2846 11.2792C78.4636 10.9344 78.5528 10.5389 78.5528 10.0928C78.5528 9.64658 78.4636 9.25618 78.2846 8.92156C78.106 8.5768 77.8576 8.30808 77.5399 8.11541C77.2218 7.91261 76.8544 7.81119 76.4373 7.81119C76.0399 7.81119 75.6823 7.90754 75.3646 8.1002C75.0567 8.29287 74.8133 8.56157 74.6346 8.90635C74.4656 9.25111 74.3813 9.64658 74.3813 10.0928C74.3813 10.5389 74.4656 10.9344 74.6346 11.2792C74.8133 11.6239 75.0567 11.8927 75.3646 12.0853C75.6823 12.278 76.0399 12.3743 76.4373 12.3743Z" fill="#1C2346"/>
<path d="M82.5732 13.7889C83.2387 14.2148 84.0183 14.4277 84.9124 14.4277C85.5479 14.4277 86.0992 14.3212 86.566 14.1083C87.0328 13.8852 87.3956 13.581 87.6538 13.1957C87.9219 12.8103 88.0561 12.3591 88.0561 11.8419C88.0561 11.2437 87.8772 10.7417 87.5196 10.3361C87.162 9.92038 86.6456 9.61109 85.9702 9.40828L84.6739 9.01281C84.4752 8.95199 84.3064 8.88607 84.1673 8.81508C84.0383 8.74411 83.9439 8.66298 83.8844 8.57173C83.8248 8.48046 83.7949 8.37904 83.7949 8.26751C83.7949 8.05457 83.8742 7.88726 84.0334 7.76558C84.2022 7.64388 84.4305 7.58306 84.7186 7.58306C85.116 7.58306 85.4686 7.68952 85.7765 7.90247C86.0943 8.10527 86.3127 8.37904 86.4321 8.72383L88.0857 7.93289C87.8374 7.24334 87.4104 6.71099 86.8045 6.3358C86.2084 5.95048 85.5133 5.75781 84.7186 5.75781C84.1127 5.75781 83.5765 5.86934 83.1094 6.09243C82.6427 6.30538 82.2802 6.6045 82.0219 6.98983C81.7637 7.37518 81.6347 7.82641 81.6347 8.34357C81.6347 8.93171 81.8134 9.44378 82.1709 9.87981C82.5285 10.3057 83.04 10.615 83.7055 10.8077L85.091 11.2031C85.2699 11.2538 85.4189 11.3147 85.538 11.3856C85.6571 11.4566 85.7466 11.5378 85.8061 11.629C85.866 11.7101 85.8956 11.8115 85.8956 11.9332C85.8956 12.1665 85.8111 12.349 85.6423 12.4808C85.4735 12.6126 85.2301 12.6785 84.9124 12.6785C84.4752 12.6785 84.0781 12.5518 83.7203 12.2983C83.3627 12.0448 83.0798 11.6949 82.8712 11.2487L81.2324 12.0397C81.4706 12.7698 81.9176 13.3529 82.5732 13.7889Z" fill="#1C2346"/>
<path d="M97.418 5.94033H99.5038V6.94356C99.6565 6.64003 99.87 6.39687 100.145 6.2141C100.601 5.90991 101.148 5.75781 101.783 5.75781C102.459 5.75781 103.05 5.93526 103.556 6.29017C103.858 6.49127 104.093 6.73379 104.262 7.01773C104.478 6.69644 104.734 6.43871 105.031 6.24453C105.528 5.92005 106.109 5.75781 106.774 5.75781C107.36 5.75781 107.877 5.88963 108.324 6.15328C108.781 6.41691 109.138 6.78702 109.397 7.26363C109.655 7.73009 109.784 8.27765 109.784 8.90635V14.2452H107.549V9.39307C107.549 9.06859 107.49 8.78975 107.37 8.55652C107.261 8.32329 107.102 8.14077 106.894 8.00893C106.685 7.87711 106.432 7.81119 106.134 7.81119C105.846 7.81119 105.593 7.87711 105.374 8.00893C105.165 8.14077 105.001 8.32329 104.882 8.55652C104.773 8.78975 104.719 9.06859 104.719 9.39307V14.2452H102.484V9.39307C102.484 9.06859 102.424 8.78975 102.305 8.55652C102.196 8.32329 102.037 8.14077 101.828 8.00893C101.62 7.87711 101.366 7.81119 101.068 7.81119C100.78 7.81119 100.527 7.87711 100.308 8.00893C100.1 8.14077 99.936 8.32329 99.8166 8.55652C99.7074 8.78975 99.6528 9.06859 99.6528 9.39307V14.2452H97.418V5.94033Z" fill="#1C2346"/>
<path d="M91.8652 14.4278C91.2096 14.4278 90.6484 14.2858 90.1816 14.0019C89.7247 13.7079 89.377 13.3022 89.1388 12.7851C88.9004 12.2679 88.7812 11.6646 88.7812 10.9751V5.94043H91.0161V10.7925C91.0161 11.1069 91.0756 11.3857 91.1947 11.6291C91.324 11.8623 91.5026 12.0448 91.7312 12.1767C91.9595 12.3085 92.2178 12.3744 92.5059 12.3744C92.8039 12.3744 93.0621 12.3085 93.2806 12.1767C93.5092 12.0448 93.6829 11.8623 93.802 11.6291C93.9312 11.3857 93.9957 11.1069 93.9957 10.7925V5.94043H96.2306V14.2453H94.1447V13.2347C93.9551 13.5993 93.687 13.8804 93.3401 14.078C92.923 14.3112 92.4313 14.4278 91.8652 14.4278Z" fill="#1C2346"/>
<path fill-rule="evenodd" clip-rule="evenodd" d="M63.5041 14.4277C62.6995 14.4277 61.9643 14.2401 61.2989 13.8649C60.6433 13.4897 60.117 12.9777 59.7196 12.3287C59.3324 11.6696 59.1387 10.9243 59.1387 10.0928C59.1387 9.25111 59.3324 8.50581 59.7196 7.85683C60.117 7.20785 60.6433 6.69578 61.2989 6.32059C61.9643 5.94541 62.6995 5.75781 63.5041 5.75781C64.3084 5.75781 65.0386 5.94541 65.6942 6.32059C66.3495 6.69578 66.8712 7.20785 67.2584 7.85683C67.6557 8.50581 67.8544 9.25111 67.8544 10.0928C67.8544 10.9243 67.6557 11.6696 67.2584 12.3287C66.8712 12.9777 66.3495 13.4897 65.6942 13.8649C65.0386 14.2401 64.3084 14.4277 63.5041 14.4277ZM63.5041 12.3743C63.9113 12.3743 64.2639 12.278 64.5617 12.0853C64.8696 11.8927 65.1081 11.6239 65.2768 11.2792C65.4557 10.9344 65.5452 10.5389 65.5452 10.0928C65.5452 9.64658 65.4557 9.25618 65.2768 8.92156C65.1081 8.5768 64.8696 8.30808 64.5617 8.11541C64.2639 7.91261 63.9113 7.81119 63.5041 7.81119C63.0969 7.81119 62.7393 7.91261 62.4314 8.11541C62.1232 8.30808 61.8801 8.5768 61.7012 8.92156C61.5324 9.25618 61.4479 9.64658 61.4479 10.0928C61.4479 10.5389 61.5324 10.9344 61.7012 11.2792C61.8801 11.6239 62.1232 11.8927 62.4314 12.0853C62.7393 12.278 63.0969 12.3743 63.5041 12.3743Z" fill="#1C2346"/>
<path fill-rule="evenodd" clip-rule="evenodd" d="M52.5014 17.2721C53.0376 17.485 53.6188 17.5915 54.2445 17.5915C55.0291 17.5915 55.7195 17.4292 56.3155 17.1047C56.9214 16.7802 57.3981 16.329 57.7458 15.751C58.0932 15.1832 58.2672 14.5342 58.2672 13.8041V5.94033H56.1813V6.81259C55.9359 6.51862 55.6579 6.28868 55.3471 6.12286C54.91 5.87949 54.3985 5.75781 53.8123 5.75781C53.0675 5.75781 52.4021 5.93019 51.8159 6.27495C51.23 6.61972 50.7682 7.09632 50.4304 7.70473C50.0926 8.30301 49.9238 8.99253 49.9238 9.77333C49.9238 10.5541 50.0926 11.2538 50.4304 11.8724C50.7682 12.4808 51.235 12.9624 51.831 13.3174C52.4268 13.6621 53.1021 13.8345 53.857 13.8345C54.4432 13.8345 54.9547 13.723 55.3916 13.4999C55.6285 13.3735 55.8422 13.2128 56.0323 13.0178V13.8041C56.0323 14.159 55.958 14.4683 55.809 14.7319C55.6698 14.9956 55.4662 15.1933 55.1981 15.3251C54.9297 15.4671 54.612 15.5381 54.2445 15.5381C53.7777 15.5381 53.3754 15.4265 53.0376 15.2034C52.7001 14.9803 52.4765 14.6761 52.3672 14.2908L50.2962 15.0361C50.4652 15.5533 50.7383 15.9994 51.1159 16.3746C51.5031 16.76 51.9649 17.0591 52.5014 17.2721ZM55.1534 11.5225C54.8751 11.6848 54.5475 11.7659 54.1699 11.7659C53.7926 11.7659 53.4547 11.6848 53.157 11.5225C52.8689 11.3502 52.6403 11.1169 52.4715 10.8228C52.3126 10.5288 52.233 10.1891 52.233 9.80375C52.233 9.40828 52.3126 9.06352 52.4715 8.76947C52.6403 8.46525 52.8689 8.23202 53.157 8.06978C53.4547 7.8974 53.7926 7.81119 54.1699 7.81119C54.5376 7.81119 54.8603 7.8974 55.1383 8.06978C55.4165 8.23202 55.635 8.46525 55.7939 8.76947C55.953 9.06352 56.0323 9.40828 56.0323 9.80375C56.0323 10.1992 55.953 10.544 55.7939 10.8381C55.6449 11.1321 55.4314 11.3603 55.1534 11.5225Z" fill="#1C2346"/>
<path fill-rule="evenodd" clip-rule="evenodd" d="M45.0312 14.4277C44.2266 14.4277 43.4917 14.2401 42.8262 13.8649C42.1707 13.4897 41.6443 12.9777 41.247 12.3287C40.8595 11.6696 40.666 10.9243 40.666 10.0928C40.666 9.25111 40.8595 8.50581 41.247 7.85683C41.6443 7.20785 42.1707 6.69578 42.8262 6.32059C43.4917 5.94541 44.2266 5.75781 45.0312 5.75781C45.8358 5.75781 46.5657 5.94541 47.2213 6.32059C47.8769 6.69578 48.3983 7.20785 48.7857 7.85683C49.1831 8.50581 49.3818 9.25111 49.3818 10.0928C49.3818 10.9243 49.1831 11.6696 48.7857 12.3287C48.3983 12.9777 47.8769 13.4897 47.2213 13.8649C46.5657 14.2401 45.8358 14.4277 45.0312 14.4277ZM45.0312 12.3743C45.4384 12.3743 45.791 12.278 46.089 12.0853C46.3969 11.8927 46.6354 11.6239 46.8042 11.2792C46.9831 10.9344 47.0723 10.5389 47.0723 10.0928C47.0723 9.64658 46.9831 9.25618 46.8042 8.92156C46.6354 8.5768 46.3969 8.30808 46.089 8.11541C45.791 7.91261 45.4384 7.81119 45.0312 7.81119C44.6239 7.81119 44.2664 7.91261 43.9585 8.11541C43.6506 8.30808 43.4072 8.5768 43.2285 8.92156C43.0598 9.25618 42.9752 9.64658 42.9752 10.0928C42.9752 10.5389 43.0598 10.9344 43.2285 11.2792C43.4072 11.6239 43.6506 11.8927 43.9585 12.0853C44.2664 12.278 44.6239 12.3743 45.0312 12.3743Z" fill="#1C2346"/>
</g>
<defs>
<clipPath id="clip0_310_11913">
<rect width="110" height="30" fill="white" transform="translate(0 0.657227)"/>
</clipPath>
</defs>
</svg>
