<svg width="20" height="20" viewBox="0 0 20 20" fill="none" xmlns="http://www.w3.org/2000/svg">
<path d="M16.7765 16.5398L11.8859 8.85391L16.7117 3.54531C16.8208 3.42228 16.8771 3.2612 16.8682 3.09697C16.8594 2.93275 16.7862 2.77862 16.6645 2.66801C16.5428 2.5574 16.3824 2.49923 16.2181 2.50609C16.0537 2.51296 15.8987 2.58431 15.7867 2.70469L11.1898 7.76094L8.02653 2.78984C7.97012 2.70106 7.89221 2.62795 7.80003 2.57728C7.70785 2.52661 7.60437 2.50003 7.49918 2.5H3.74918C3.63712 2.49995 3.5271 2.53002 3.43066 2.58708C3.33421 2.64413 3.25487 2.72607 3.20096 2.82431C3.14705 2.92255 3.12054 3.03348 3.12421 3.14548C3.12789 3.25749 3.1616 3.36644 3.22184 3.46094L8.11246 11.1461L3.28668 16.4586C3.23033 16.5191 3.18655 16.5902 3.15788 16.6678C3.12922 16.7454 3.11623 16.8279 3.11969 16.9105C3.12314 16.9932 3.14296 17.0743 3.17799 17.1492C3.21303 17.2241 3.26259 17.2914 3.3238 17.347C3.38501 17.4026 3.45664 17.4455 3.53456 17.4733C3.61248 17.501 3.69513 17.513 3.77772 17.5085C3.8603 17.5041 3.94119 17.4833 4.01568 17.4474C4.09017 17.4114 4.15679 17.3611 4.21168 17.2992L8.80856 12.243L11.9718 17.2141C12.0287 17.3021 12.1068 17.3745 12.199 17.4244C12.2911 17.4744 12.3944 17.5004 12.4992 17.5H16.2492C16.3611 17.5 16.471 17.4699 16.5673 17.4128C16.6637 17.3558 16.7429 17.274 16.7968 17.1759C16.8507 17.0778 16.8772 16.967 16.8737 16.8551C16.8701 16.7432 16.8366 16.6343 16.7765 16.5398ZM12.8422 16.25L4.88746 3.75H7.15309L15.1109 16.25H12.8422Z" fill="#C3C3C4"/>
</svg>
